<svg xmlns="http://www.w3.org/2000/svg" xmlns:xlink="http://www.w3.org/1999/xlink" width="1920" zoomAndPan="magnify" viewBox="0 0 1440 809.999993" height="1080" preserveAspectRatio="xMidYMid meet" version="1.0"><defs><g/><clipPath id="877c09ee37"><path d="M 185 45.28125 L 291 45.28125 L 291 146 L 185 146 Z M 185 45.28125 " clip-rule="nonzero"/></clipPath></defs><path fill="#00693f" d="M 434.226562 471.300781 C 427.804688 461.144531 436.90625 449.332031 444.316406 442.785156 C 459.375 429.488281 480.359375 427.820312 499.542969 429.738281 C 496.828125 429.71875 490.335938 465.777344 463.039062 475.113281 C 454.433594 478.054688 440.035156 480.488281 434.226562 471.300781 Z M 407.652344 493.628906 L 224.0625 493.628906 C 221.089844 493.628906 218.683594 491.226562 218.683594 488.253906 C 218.683594 485.285156 221.089844 482.878906 224.0625 482.878906 L 407.652344 482.878906 C 410.625 482.878906 413.03125 485.285156 413.03125 488.253906 C 413.03125 491.226562 410.625 493.628906 407.652344 493.628906 Z M 407.652344 511.59375 L 224.0625 511.59375 C 221.089844 511.59375 218.683594 509.191406 218.683594 506.222656 C 218.683594 503.25 221.089844 500.847656 224.0625 500.847656 L 407.652344 500.847656 C 410.625 500.847656 413.03125 503.25 413.03125 506.222656 C 413.03125 509.191406 410.625 511.59375 407.652344 511.59375 Z M 407.652344 529.566406 L 224.0625 529.566406 C 221.089844 529.566406 218.683594 527.15625 218.683594 524.191406 C 218.683594 521.222656 221.089844 518.8125 224.0625 518.8125 L 407.652344 518.8125 C 410.625 518.8125 413.03125 521.222656 413.03125 524.191406 C 413.03125 527.15625 410.625 529.566406 407.652344 529.566406 Z M 197.492188 471.300781 C 191.683594 480.488281 177.28125 478.054688 168.679688 475.113281 C 141.382812 465.777344 134.890625 429.71875 132.175781 429.738281 C 151.359375 427.820312 172.339844 429.488281 187.398438 442.785156 C 194.8125 449.332031 203.914062 461.144531 197.492188 471.300781 Z M 174.5 334.976562 C 176.851562 327.242188 183.753906 321.773438 191.824219 321.257812 C 220.878906 319.40625 289.140625 315.230469 315.855469 315.230469 C 342.574219 315.230469 410.832031 319.40625 439.890625 321.257812 C 447.964844 321.773438 454.867188 327.242188 457.214844 334.976562 L 475.703125 395.839844 C 475.703125 395.839844 355.980469 381.386719 315.855469 381.386719 C 275.734375 381.386719 156.011719 395.839844 156.011719 395.839844 Z M 565.578125 408.28125 C 565.578125 397.199219 544.691406 388.214844 518.921875 388.214844 C 515.582031 388.214844 512.597656 388.371094 509.925781 388.652344 C 502.359375 365.5 493.167969 340.246094 486.085938 321.335938 C 479.441406 303.597656 462.488281 291.84375 443.539062 291.84375 L 188.175781 291.84375 C 169.226562 291.84375 152.277344 303.597656 145.632812 321.335938 C 138.488281 340.410156 129.195312 365.945312 121.589844 389.265625 C 117.957031 388.585938 113.613281 388.214844 108.398438 388.214844 C 82.628906 388.214844 61.734375 397.199219 61.734375 408.28125 C 61.734375 419.371094 82.628906 428.355469 108.398438 428.355469 C 109.023438 428.355469 109.632812 428.34375 110.234375 428.339844 C 109.457031 431.679688 108.835938 434.734375 108.398438 437.433594 C 105.28125 456.644531 105.972656 499.957031 106.984375 530.746094 L 106.984375 583.105469 C 106.984375 592.523438 114.621094 600.15625 124.039062 600.15625 L 159.933594 600.15625 C 169.351562 600.15625 176.988281 592.523438 176.988281 583.105469 L 176.988281 564.867188 L 453.316406 564.867188 L 453.316406 583.105469 C 453.316406 592.523438 460.949219 600.15625 470.367188 600.15625 L 506.261719 600.15625 C 515.683594 600.15625 523.320312 592.523438 523.320312 583.105469 L 523.320312 564.867188 C 523.320312 564.867188 528.417969 468.882812 523.320312 437.433594 C 522.882812 434.730469 522.257812 431.671875 521.480469 428.320312 C 546.058594 427.75 565.578125 418.996094 565.578125 408.28125 " fill-opacity="1" fill-rule="nonzero"/><g clip-path="url(#877c09ee37)"><path fill="#5ab334" d="M 191.691406 45.308594 C 191.691406 45.308594 190.175781 61.867188 234.566406 73.128906 C 290.660156 87.355469 290.503906 139.511719 290.503906 139.511719 C 290.503906 139.511719 265.261719 95.523438 203.875 89.105469 C 203.875 89.105469 255.675781 104.050781 278.046875 144.660156 C 263.394531 148.589844 229.890625 144.773438 203.597656 118.113281 C 172.890625 86.976562 191.691406 45.308594 191.691406 45.308594 " fill-opacity="1" fill-rule="nonzero"/></g><path fill="#5ab334" d="M 571.648438 340.449219 C 556.074219 302.035156 531.566406 266.96875 500.761719 239.042969 L 492.289062 248.382812 C 553.476562 303.859375 584.8125 382.71875 578.363281 464.882812 C 567.050781 608.988281 441.113281 717.738281 296.835938 707.878906 C 149.710938 697.824219 39.289062 569.054688 51.320312 422.609375 C 61.101562 303.582031 148.910156 209.789062 260.113281 185.683594 C 286.207031 180.027344 311.773438 180.597656 338.039062 184.339844 C 365.140625 188.195312 394.660156 190.773438 420.636719 180.234375 C 442.261719 171.464844 461.035156 154.859375 469.402344 132.746094 C 473.757812 121.226562 476.589844 108.105469 476.046875 95.703125 C 476.046875 95.703125 467.84375 117.929688 403.859375 105.222656 C 323 89.167969 297.773438 148.179688 297.773438 148.179688 C 297.773438 148.179688 371.53125 124.082031 433.535156 144.566406 C 360.113281 132.285156 253.101562 167.777344 227.816406 178.613281 C 194.90625 192.726562 163.066406 209.847656 135.636719 233.109375 C 108.203125 256.363281 85.875 284.242188 69.269531 315.957031 C 52.082031 348.796875 41.8125 384.335938 38.75 421.582031 C 35.691406 458.824219 40.023438 495.5625 51.621094 530.765625 C 62.824219 564.769531 80.304688 595.90625 103.574219 623.324219 C 126.839844 650.75 154.726562 673.066406 186.457031 689.660156 C 219.316406 706.84375 254.867188 717.109375 292.132812 720.171875 C 329.394531 723.226562 366.148438 718.898438 401.367188 707.300781 C 435.382812 696.105469 466.539062 678.636719 493.96875 655.378906 C 521.398438 632.121094 543.730469 604.246094 560.335938 572.53125 C 577.527344 539.691406 587.792969 504.152344 590.851562 466.902344 C 594.4375 423.277344 587.980469 380.734375 571.648438 340.449219 " fill-opacity="1" fill-rule="nonzero"/><path fill="#5ab334" d="M 495.148438 209.273438 L 476.457031 187.25 C 474.996094 185.53125 472.421875 185.320312 470.699219 186.777344 C 468.976562 188.238281 468.761719 190.816406 470.222656 192.539062 L 488.914062 214.558594 L 473.023438 228.027344 L 454.335938 206.007812 C 452.878906 204.285156 450.296875 204.070312 448.574219 205.53125 C 446.855469 206.992188 446.644531 209.570312 448.105469 211.289062 L 466.789062 233.3125 L 459.871094 239.179688 L 490.949219 275.800781 C 500.832031 287.449219 518.289062 288.882812 529.945312 279.007812 C 541.59375 269.128906 543.027344 251.679688 533.144531 240.03125 L 502.066406 203.410156 L 495.148438 209.273438 " fill-opacity="1" fill-rule="nonzero"/><path fill="#ffffff" d="M 1340.535156 424.996094 C 1321.71875 424.996094 1306.410156 440.304688 1306.410156 459.121094 C 1306.410156 477.9375 1321.71875 493.246094 1340.535156 493.246094 C 1359.351562 493.246094 1374.660156 477.9375 1374.660156 459.121094 C 1374.660156 440.300781 1359.351562 424.996094 1340.535156 424.996094 Z M 1340.535156 430.246094 C 1356.511719 430.246094 1369.410156 443.144531 1369.410156 459.121094 C 1369.410156 475.097656 1356.511719 487.996094 1340.535156 487.996094 C 1324.558594 487.996094 1311.660156 475.097656 1311.660156 459.121094 C 1311.660156 443.144531 1324.558594 430.246094 1340.535156 430.246094 Z M 1327.410156 440.746094 L 1327.410156 477.496094 L 1332.660156 477.496094 L 1332.660156 466.996094 L 1339.214844 466.996094 L 1346.964844 477.496094 L 1353.492188 477.496094 L 1345.097656 466.125 C 1350.078125 464.257812 1353.660156 459.480469 1353.660156 453.871094 C 1353.660156 446.652344 1347.753906 440.746094 1340.535156 440.746094 Z M 1332.660156 445.996094 L 1340.535156 445.996094 C 1344.917969 445.996094 1348.410156 449.488281 1348.410156 453.871094 C 1348.410156 458.253906 1344.917969 461.746094 1340.535156 461.746094 L 1332.660156 461.746094 Z M 1332.660156 445.996094 " fill-opacity="1" fill-rule="nonzero"/><g fill="#5ab334" fill-opacity="1"><g transform="translate(519.691962, 283.17248)"><g><path d="M 113.984375 2.386719 C 164.90625 2.386719 205.886719 -24.269531 208.667969 -64.648438 L 231.746094 -64.648438 L 231.746094 -72.804688 L 120.148438 -72.804688 L 120.148438 -64.648438 L 197.53125 -64.648438 C 195.539062 -29.042969 159.734375 -6.367188 113.984375 -6.367188 C 65.046875 -6.367188 26.65625 -29.640625 26.65625 -67.632812 C 26.65625 -104.632812 65.644531 -132.679688 116.964844 -132.679688 C 146.40625 -132.679688 174.058594 -124.128906 187.386719 -113.785156 L 194.148438 -121.144531 C 179.230469 -132.085938 157.347656 -141.433594 116.765625 -141.433594 C 59.476562 -141.433594 15.515625 -108.414062 15.515625 -67.632812 C 15.515625 -25.660156 58.882812 2.386719 113.984375 2.386719 Z M 113.984375 2.386719 "/></g></g></g><g fill="#5ab334" fill-opacity="1"><g transform="translate(759.790988, 283.17248)"><g><path d="M 15.515625 0 L 25.859375 0 L 25.859375 -58.683594 C 26.855469 -83.945312 46.347656 -100.257812 80.5625 -100.257812 C 87.128906 -100.257812 89.515625 -100.058594 94.886719 -98.863281 L 96.675781 -107.21875 C 91.304688 -108.015625 87.921875 -108.414062 80.5625 -108.414062 C 53.710938 -108.414062 35.410156 -99.0625 26.457031 -83.746094 L 24.667969 -83.746094 L 20.6875 -106.226562 L 15.515625 -106.226562 Z M 15.515625 0 "/></g></g></g><g fill="#5ab334" fill-opacity="1"><g transform="translate(860.047773, 283.17248)"><g><path d="M 92.300781 2.386719 C 118.359375 2.386719 143.621094 -3.582031 160.730469 -17.304688 L 155.359375 -23.871094 C 140.4375 -11.539062 115.574219 -5.570312 92.300781 -5.570312 C 51.917969 -5.570312 21.882812 -23.273438 20.488281 -49.332031 L 168.289062 -49.332031 C 168.488281 -50.527344 168.6875 -51.917969 168.6875 -53.113281 C 168.6875 -85.734375 133.675781 -108.414062 89.515625 -108.414062 C 45.355469 -108.414062 9.945312 -85.734375 9.945312 -53.113281 C 9.945312 -20.289062 42.570312 2.386719 92.300781 2.386719 Z M 20.488281 -57.089844 C 22.082031 -82.949219 54.105469 -100.457031 89.515625 -100.457031 C 124.921875 -100.457031 156.152344 -82.949219 158.34375 -57.089844 Z M 20.488281 -57.089844 "/></g></g></g><g fill="#5ab334" fill-opacity="1"><g transform="translate(1038.679899, 283.17248)"><g><path d="M 92.300781 2.386719 C 118.359375 2.386719 143.621094 -3.582031 160.730469 -17.304688 L 155.359375 -23.871094 C 140.4375 -11.539062 115.574219 -5.570312 92.300781 -5.570312 C 51.917969 -5.570312 21.882812 -23.273438 20.488281 -49.332031 L 168.289062 -49.332031 C 168.488281 -50.527344 168.6875 -51.917969 168.6875 -53.113281 C 168.6875 -85.734375 133.675781 -108.414062 89.515625 -108.414062 C 45.355469 -108.414062 9.945312 -85.734375 9.945312 -53.113281 C 9.945312 -20.289062 42.570312 2.386719 92.300781 2.386719 Z M 20.488281 -57.089844 C 22.082031 -82.949219 54.105469 -100.457031 89.515625 -100.457031 C 124.921875 -100.457031 156.152344 -82.949219 158.34375 -57.089844 Z M 20.488281 -57.089844 "/></g></g></g><g fill="#5ab334" fill-opacity="1"><g transform="translate(1217.312047, 283.17248)"><g><path d="M 15.515625 0 L 25.859375 0 L 25.859375 -57.886719 C 25.859375 -82.949219 51.320312 -100.257812 83.347656 -100.257812 C 116.171875 -100.257812 142.628906 -84.144531 142.628906 -57.886719 L 142.628906 0 L 152.972656 0 L 152.972656 -58.085938 C 152.972656 -87.726562 123.53125 -108.414062 86.132812 -108.414062 C 60.273438 -108.414062 37.996094 -98.464844 26.65625 -82.355469 L 24.867188 -82.355469 L 20.6875 -106.226562 L 15.515625 -106.226562 Z M 15.515625 0 "/></g></g></g><g fill="#000000" fill-opacity="1"><g transform="translate(1385.789571, 283.17248)"><g/></g></g><g fill="#ffffff" fill-opacity="1"><g transform="translate(639.633359, 561.422466)"><g><path d="M 22.675781 0 L 105.230469 0 C 160.53125 0 198.523438 -29.042969 198.523438 -69.621094 C 198.523438 -110.203125 160.53125 -139.246094 105.230469 -139.246094 L 22.675781 -139.246094 Z M 33.21875 -8.753906 L 33.21875 -130.691406 L 105.230469 -130.691406 C 150.785156 -130.691406 188.179688 -105.230469 188.179688 -69.621094 C 188.179688 -34.214844 150.785156 -8.753906 105.230469 -8.753906 Z M 33.21875 -8.753906 "/></g></g></g><g fill="#ffffff" fill-opacity="1"><g transform="translate(854.071436, 561.422466)"><g><path d="M 15.515625 0 L 25.859375 0 L 25.859375 -58.683594 C 26.855469 -83.945312 46.347656 -100.257812 80.5625 -100.257812 C 87.128906 -100.257812 89.515625 -100.058594 94.886719 -98.863281 L 96.675781 -107.21875 C 91.304688 -108.015625 87.921875 -108.414062 80.5625 -108.414062 C 53.710938 -108.414062 35.410156 -99.0625 26.457031 -83.746094 L 24.667969 -83.746094 L 20.6875 -106.226562 L 15.515625 -106.226562 Z M 15.515625 0 "/></g></g></g><g fill="#ffffff" fill-opacity="1"><g transform="translate(954.328221, 561.422466)"><g><path d="M 20.6875 -134.273438 C 24.867188 -134.273438 28.644531 -137.851562 28.644531 -142.230469 C 28.644531 -146.804688 24.867188 -150.386719 20.6875 -150.386719 C 16.710938 -150.386719 12.730469 -146.804688 12.730469 -142.230469 C 12.730469 -137.851562 16.710938 -134.273438 20.6875 -134.273438 Z M 15.515625 0 L 25.859375 0 L 25.859375 -106.226562 L 15.515625 -106.226562 Z M 15.515625 0 "/></g></g></g><g fill="#ffffff" fill-opacity="1"><g transform="translate(995.704035, 561.422466)"><g><path d="M 66.042969 2.386719 L 77.183594 2.386719 L 142.230469 -106.226562 L 131.488281 -106.226562 L 72.40625 -7.957031 L 70.816406 -7.957031 L 11.539062 -106.226562 L 0.796875 -106.226562 Z M 66.042969 2.386719 "/></g></g></g><g fill="#ffffff" fill-opacity="1"><g transform="translate(1138.729035, 561.422466)"><g><path d="M 92.300781 2.386719 C 118.359375 2.386719 143.621094 -3.582031 160.730469 -17.304688 L 155.359375 -23.871094 C 140.4375 -11.539062 115.574219 -5.570312 92.300781 -5.570312 C 51.917969 -5.570312 21.882812 -23.273438 20.488281 -49.332031 L 168.289062 -49.332031 C 168.488281 -50.527344 168.6875 -51.917969 168.6875 -53.113281 C 168.6875 -85.734375 133.675781 -108.414062 89.515625 -108.414062 C 45.355469 -108.414062 9.945312 -85.734375 9.945312 -53.113281 C 9.945312 -20.289062 42.570312 2.386719 92.300781 2.386719 Z M 20.488281 -57.089844 C 22.082031 -82.949219 54.105469 -100.457031 89.515625 -100.457031 C 124.921875 -100.457031 156.152344 -82.949219 158.34375 -57.089844 Z M 20.488281 -57.089844 "/></g></g></g></svg>