<svg xmlns="http://www.w3.org/2000/svg" xmlns:xlink="http://www.w3.org/1999/xlink" width="1920" zoomAndPan="magnify" viewBox="0 0 1440 809.999993" height="1080" preserveAspectRatio="xMidYMid meet" version="1.0"><defs><g/><clipPath id="c4d6d4fc91"><path d="M 185 45.28125 L 291 45.28125 L 291 146 L 185 146 Z M 185 45.28125 " clip-rule="nonzero"/></clipPath></defs><path fill="#00693f" d="M 434.226562 471.300781 C 427.804688 461.144531 436.90625 449.332031 444.316406 442.785156 C 459.375 429.488281 480.359375 427.820312 499.542969 429.738281 C 496.828125 429.71875 490.335938 465.777344 463.039062 475.113281 C 454.433594 478.054688 440.035156 480.488281 434.226562 471.300781 Z M 407.652344 493.628906 L 224.0625 493.628906 C 221.089844 493.628906 218.683594 491.226562 218.683594 488.253906 C 218.683594 485.285156 221.089844 482.878906 224.0625 482.878906 L 407.652344 482.878906 C 410.625 482.878906 413.03125 485.285156 413.03125 488.253906 C 413.03125 491.226562 410.625 493.628906 407.652344 493.628906 Z M 407.652344 511.59375 L 224.0625 511.59375 C 221.089844 511.59375 218.683594 509.191406 218.683594 506.222656 C 218.683594 503.25 221.089844 500.847656 224.0625 500.847656 L 407.652344 500.847656 C 410.625 500.847656 413.03125 503.25 413.03125 506.222656 C 413.03125 509.191406 410.625 511.59375 407.652344 511.59375 Z M 407.652344 529.566406 L 224.0625 529.566406 C 221.089844 529.566406 218.683594 527.15625 218.683594 524.191406 C 218.683594 521.222656 221.089844 518.8125 224.0625 518.8125 L 407.652344 518.8125 C 410.625 518.8125 413.03125 521.222656 413.03125 524.191406 C 413.03125 527.15625 410.625 529.566406 407.652344 529.566406 Z M 197.492188 471.300781 C 191.683594 480.488281 177.28125 478.054688 168.679688 475.113281 C 141.382812 465.777344 134.890625 429.71875 132.175781 429.738281 C 151.359375 427.820312 172.339844 429.488281 187.398438 442.785156 C 194.8125 449.332031 203.914062 461.144531 197.492188 471.300781 Z M 174.5 334.976562 C 176.851562 327.242188 183.753906 321.773438 191.824219 321.257812 C 220.878906 319.40625 289.140625 315.230469 315.855469 315.230469 C 342.574219 315.230469 410.832031 319.40625 439.890625 321.257812 C 447.964844 321.773438 454.867188 327.242188 457.214844 334.976562 L 475.703125 395.839844 C 475.703125 395.839844 355.980469 381.386719 315.855469 381.386719 C 275.734375 381.386719 156.011719 395.839844 156.011719 395.839844 Z M 565.578125 408.28125 C 565.578125 397.199219 544.691406 388.214844 518.921875 388.214844 C 515.582031 388.214844 512.597656 388.371094 509.925781 388.652344 C 502.359375 365.5 493.167969 340.246094 486.085938 321.335938 C 479.441406 303.597656 462.488281 291.84375 443.539062 291.84375 L 188.175781 291.84375 C 169.226562 291.84375 152.277344 303.597656 145.632812 321.335938 C 138.488281 340.410156 129.195312 365.945312 121.589844 389.265625 C 117.957031 388.585938 113.613281 388.214844 108.398438 388.214844 C 82.628906 388.214844 61.734375 397.199219 61.734375 408.28125 C 61.734375 419.371094 82.628906 428.355469 108.398438 428.355469 C 109.023438 428.355469 109.632812 428.34375 110.234375 428.339844 C 109.457031 431.679688 108.835938 434.734375 108.398438 437.433594 C 105.28125 456.644531 105.972656 499.957031 106.984375 530.746094 L 106.984375 583.105469 C 106.984375 592.523438 114.621094 600.15625 124.039062 600.15625 L 159.933594 600.15625 C 169.351562 600.15625 176.988281 592.523438 176.988281 583.105469 L 176.988281 564.867188 L 453.316406 564.867188 L 453.316406 583.105469 C 453.316406 592.523438 460.949219 600.15625 470.367188 600.15625 L 506.261719 600.15625 C 515.683594 600.15625 523.320312 592.523438 523.320312 583.105469 L 523.320312 564.867188 C 523.320312 564.867188 528.417969 468.882812 523.320312 437.433594 C 522.882812 434.730469 522.257812 431.671875 521.480469 428.320312 C 546.058594 427.75 565.578125 418.996094 565.578125 408.28125 " fill-opacity="1" fill-rule="nonzero"/><g clip-path="url(#c4d6d4fc91)"><path fill="#5ab334" d="M 191.691406 45.308594 C 191.691406 45.308594 190.175781 61.867188 234.566406 73.128906 C 290.660156 87.355469 290.503906 139.511719 290.503906 139.511719 C 290.503906 139.511719 265.261719 95.523438 203.875 89.105469 C 203.875 89.105469 255.675781 104.050781 278.046875 144.660156 C 263.394531 148.589844 229.890625 144.773438 203.597656 118.113281 C 172.890625 86.976562 191.691406 45.308594 191.691406 45.308594 " fill-opacity="1" fill-rule="nonzero"/></g><path fill="#5ab334" d="M 571.648438 340.449219 C 556.074219 302.035156 531.566406 266.96875 500.761719 239.042969 L 492.289062 248.382812 C 553.476562 303.859375 584.8125 382.71875 578.363281 464.882812 C 567.050781 608.988281 441.113281 717.738281 296.835938 707.878906 C 149.710938 697.824219 39.289062 569.054688 51.320312 422.609375 C 61.101562 303.582031 148.910156 209.789062 260.113281 185.683594 C 286.207031 180.027344 311.773438 180.597656 338.039062 184.339844 C 365.140625 188.195312 394.660156 190.773438 420.636719 180.234375 C 442.261719 171.464844 461.035156 154.859375 469.402344 132.746094 C 473.757812 121.226562 476.589844 108.105469 476.046875 95.703125 C 476.046875 95.703125 467.84375 117.929688 403.859375 105.222656 C 323 89.167969 297.773438 148.179688 297.773438 148.179688 C 297.773438 148.179688 371.53125 124.082031 433.535156 144.566406 C 360.113281 132.285156 253.101562 167.777344 227.816406 178.613281 C 194.90625 192.726562 163.066406 209.847656 135.636719 233.109375 C 108.203125 256.363281 85.875 284.242188 69.269531 315.957031 C 52.082031 348.796875 41.8125 384.335938 38.75 421.582031 C 35.691406 458.824219 40.023438 495.5625 51.621094 530.765625 C 62.824219 564.769531 80.304688 595.90625 103.574219 623.324219 C 126.839844 650.75 154.726562 673.066406 186.457031 689.660156 C 219.316406 706.84375 254.867188 717.109375 292.132812 720.171875 C 329.394531 723.226562 366.148438 718.898438 401.367188 707.300781 C 435.382812 696.105469 466.539062 678.636719 493.96875 655.378906 C 521.398438 632.121094 543.730469 604.246094 560.335938 572.53125 C 577.527344 539.691406 587.792969 504.152344 590.851562 466.902344 C 594.4375 423.277344 587.980469 380.734375 571.648438 340.449219 " fill-opacity="1" fill-rule="nonzero"/><path fill="#5ab334" d="M 495.148438 209.273438 L 476.457031 187.25 C 474.996094 185.53125 472.421875 185.320312 470.699219 186.777344 C 468.976562 188.238281 468.761719 190.816406 470.222656 192.539062 L 488.914062 214.558594 L 473.023438 228.027344 L 454.335938 206.007812 C 452.878906 204.285156 450.296875 204.070312 448.574219 205.53125 C 446.855469 206.992188 446.644531 209.570312 448.105469 211.289062 L 466.789062 233.3125 L 459.871094 239.179688 L 490.949219 275.800781 C 500.832031 287.449219 518.289062 288.882812 529.945312 279.007812 C 541.59375 269.128906 543.027344 251.679688 533.144531 240.03125 L 502.066406 203.410156 L 495.148438 209.273438 " fill-opacity="1" fill-rule="nonzero"/><path fill="#040606" d="M 1379.390625 387.140625 C 1369.644531 387.140625 1361.71875 395.070312 1361.71875 404.8125 C 1361.71875 414.558594 1369.644531 422.484375 1379.390625 422.484375 C 1389.136719 422.484375 1397.0625 414.558594 1397.0625 404.8125 C 1397.0625 395.066406 1389.136719 387.140625 1379.390625 387.140625 Z M 1379.390625 389.859375 C 1387.664062 389.859375 1394.34375 396.539062 1394.34375 404.8125 C 1394.34375 413.085938 1387.664062 419.765625 1379.390625 419.765625 C 1371.117188 419.765625 1364.4375 413.085938 1364.4375 404.8125 C 1364.4375 396.539062 1371.117188 389.859375 1379.390625 389.859375 Z M 1372.59375 395.296875 L 1372.59375 414.328125 L 1375.3125 414.328125 L 1375.3125 408.890625 L 1378.707031 408.890625 L 1382.722656 414.328125 L 1386.101562 414.328125 L 1381.753906 408.441406 C 1384.332031 407.472656 1386.1875 405 1386.1875 402.09375 C 1386.1875 398.355469 1383.128906 395.296875 1379.390625 395.296875 Z M 1375.3125 398.015625 L 1379.390625 398.015625 C 1381.660156 398.015625 1383.46875 399.824219 1383.46875 402.09375 C 1383.46875 404.363281 1381.660156 406.171875 1379.390625 406.171875 L 1375.3125 406.171875 Z M 1375.3125 398.015625 " fill-opacity="1" fill-rule="nonzero"/><g fill="#5ab334" fill-opacity="1"><g transform="translate(604.736307, 464.938863)"><g><path d="M 54.933594 1.152344 C 79.476562 1.152344 99.226562 -11.695312 100.570312 -31.160156 L 111.691406 -31.160156 L 111.691406 -35.089844 L 57.90625 -35.089844 L 57.90625 -31.160156 L 95.203125 -31.160156 C 94.242188 -13.996094 76.984375 -3.066406 54.933594 -3.066406 C 31.351562 -3.066406 12.847656 -14.285156 12.847656 -32.597656 C 12.847656 -50.429688 31.636719 -63.945312 56.375 -63.945312 C 70.5625 -63.945312 83.886719 -59.824219 90.3125 -54.839844 L 93.570312 -58.386719 C 86.382812 -63.660156 75.835938 -68.164062 56.277344 -68.164062 C 28.664062 -68.164062 7.476562 -52.25 7.476562 -32.597656 C 7.476562 -12.367188 28.378906 1.152344 54.933594 1.152344 Z M 54.933594 1.152344 "/></g></g></g><g fill="#5ab334" fill-opacity="1"><g transform="translate(720.454545, 464.938863)"><g><path d="M 7.476562 0 L 12.464844 0 L 12.464844 -28.28125 C 12.941406 -40.457031 22.339844 -48.320312 38.828125 -48.320312 C 41.992188 -48.320312 43.144531 -48.222656 45.730469 -47.648438 L 46.59375 -51.675781 C 44.003906 -52.058594 42.375 -52.25 38.828125 -52.25 C 25.886719 -52.25 17.066406 -47.746094 12.75 -40.363281 L 11.886719 -40.363281 L 9.972656 -51.195312 L 7.476562 -51.195312 Z M 7.476562 0 "/></g></g><g transform="translate(768.774344, 464.938863)"><g><path d="M 44.484375 1.152344 C 57.042969 1.152344 69.21875 -1.726562 77.464844 -8.339844 L 74.875 -11.503906 C 67.6875 -5.5625 55.703125 -2.683594 44.484375 -2.683594 C 25.023438 -2.683594 10.546875 -11.21875 9.875 -23.777344 L 81.109375 -23.777344 C 81.203125 -24.351562 81.300781 -25.023438 81.300781 -25.597656 C 81.300781 -41.320312 64.425781 -52.25 43.144531 -52.25 C 21.859375 -52.25 4.792969 -41.320312 4.792969 -25.597656 C 4.792969 -9.777344 20.515625 1.152344 44.484375 1.152344 Z M 9.875 -27.515625 C 10.640625 -39.980469 26.078125 -48.414062 43.144531 -48.414062 C 60.207031 -48.414062 75.261719 -39.980469 76.316406 -27.515625 Z M 9.875 -27.515625 "/></g></g></g><g fill="#5ab334" fill-opacity="1"><g transform="translate(854.86794, 464.938863)"><g><path d="M 44.484375 1.152344 C 57.042969 1.152344 69.21875 -1.726562 77.464844 -8.339844 L 74.875 -11.503906 C 67.6875 -5.5625 55.703125 -2.683594 44.484375 -2.683594 C 25.023438 -2.683594 10.546875 -11.21875 9.875 -23.777344 L 81.109375 -23.777344 C 81.203125 -24.351562 81.300781 -25.023438 81.300781 -25.597656 C 81.300781 -41.320312 64.425781 -52.25 43.144531 -52.25 C 21.859375 -52.25 4.792969 -41.320312 4.792969 -25.597656 C 4.792969 -9.777344 20.515625 1.152344 44.484375 1.152344 Z M 9.875 -27.515625 C 10.640625 -39.980469 26.078125 -48.414062 43.144531 -48.414062 C 60.207031 -48.414062 75.261719 -39.980469 76.316406 -27.515625 Z M 9.875 -27.515625 "/></g></g></g><g fill="#5ab334" fill-opacity="1"><g transform="translate(940.961523, 464.938863)"><g><path d="M 7.476562 0 L 12.464844 0 L 12.464844 -27.898438 C 12.464844 -39.980469 24.734375 -48.320312 40.171875 -48.320312 C 55.988281 -48.320312 68.742188 -40.554688 68.742188 -27.898438 L 68.742188 0 L 73.726562 0 L 73.726562 -27.996094 C 73.726562 -42.28125 59.535156 -52.25 41.511719 -52.25 C 29.050781 -52.25 18.3125 -47.457031 12.847656 -39.691406 L 11.984375 -39.691406 L 9.972656 -51.195312 L 7.476562 -51.195312 Z M 7.476562 0 "/></g></g></g><g fill="#000000" fill-opacity="1"><g transform="translate(1022.153025, 464.938863)"><g/></g></g><g fill="#000000" fill-opacity="1"><g transform="translate(1046.98403, 464.938863)"><g><path d="M 10.929688 0 L 50.714844 0 C 77.371094 0 95.679688 -13.996094 95.679688 -33.554688 C 95.679688 -53.113281 77.371094 -67.109375 50.714844 -67.109375 L 10.929688 -67.109375 Z M 16.011719 -4.21875 L 16.011719 -62.988281 L 50.714844 -62.988281 C 72.671875 -62.988281 90.695312 -50.714844 90.695312 -33.554688 C 90.695312 -16.488281 72.671875 -4.21875 50.714844 -4.21875 Z M 16.011719 -4.21875 "/></g></g></g><g fill="#000000" fill-opacity="1"><g transform="translate(1150.334702, 464.938863)"><g><path d="M 7.476562 0 L 12.464844 0 L 12.464844 -28.28125 C 12.941406 -40.457031 22.339844 -48.320312 38.828125 -48.320312 C 41.992188 -48.320312 43.144531 -48.222656 45.730469 -47.648438 L 46.59375 -51.675781 C 44.003906 -52.058594 42.375 -52.25 38.828125 -52.25 C 25.886719 -52.25 17.066406 -47.746094 12.75 -40.363281 L 11.886719 -40.363281 L 9.972656 -51.195312 L 7.476562 -51.195312 Z M 7.476562 0 "/></g></g><g transform="translate(1198.654501, 464.938863)"><g><path d="M 9.972656 -64.714844 C 11.984375 -64.714844 13.804688 -66.441406 13.804688 -68.550781 C 13.804688 -70.753906 11.984375 -72.480469 9.972656 -72.480469 C 8.054688 -72.480469 6.136719 -70.753906 6.136719 -68.550781 C 6.136719 -66.441406 8.054688 -64.714844 9.972656 -64.714844 Z M 7.476562 0 L 12.464844 0 L 12.464844 -51.195312 L 7.476562 -51.195312 Z M 7.476562 0 "/></g></g></g><g fill="#000000" fill-opacity="1"><g transform="translate(1218.595995, 464.938863)"><g><path d="M 31.828125 1.152344 L 37.199219 1.152344 L 68.550781 -51.195312 L 63.371094 -51.195312 L 34.898438 -3.835938 L 34.128906 -3.835938 L 5.5625 -51.195312 L 0.382812 -51.195312 Z M 31.828125 1.152344 "/></g></g></g><g fill="#000000" fill-opacity="1"><g transform="translate(1287.528395, 464.938863)"><g><path d="M 44.484375 1.152344 C 57.042969 1.152344 69.21875 -1.726562 77.464844 -8.339844 L 74.875 -11.503906 C 67.6875 -5.5625 55.703125 -2.683594 44.484375 -2.683594 C 25.023438 -2.683594 10.546875 -11.21875 9.875 -23.777344 L 81.109375 -23.777344 C 81.203125 -24.351562 81.300781 -25.023438 81.300781 -25.597656 C 81.300781 -41.320312 64.425781 -52.25 43.144531 -52.25 C 21.859375 -52.25 4.792969 -41.320312 4.792969 -25.597656 C 4.792969 -9.777344 20.515625 1.152344 44.484375 1.152344 Z M 9.875 -27.515625 C 10.640625 -39.980469 26.078125 -48.414062 43.144531 -48.414062 C 60.207031 -48.414062 75.261719 -39.980469 76.316406 -27.515625 Z M 9.875 -27.515625 "/></g></g></g></svg>