<svg xmlns="http://www.w3.org/2000/svg" xmlns:xlink="http://www.w3.org/1999/xlink" width="1920" zoomAndPan="magnify" viewBox="0 0 1440 809.999993" height="1080" preserveAspectRatio="xMidYMid meet" version="1.0"><path fill="#00693f" d="M 861.613281 506.136719 C 853.988281 494.070312 864.796875 480.035156 873.605469 472.257812 C 891.492188 456.460938 916.414062 454.480469 939.207031 456.757812 C 935.980469 456.734375 928.269531 499.574219 895.84375 510.664062 C 885.621094 514.160156 868.515625 517.050781 861.613281 506.136719 Z M 830.050781 532.664062 L 611.957031 532.664062 C 608.429688 532.664062 605.570312 529.808594 605.570312 526.277344 C 605.570312 522.75 608.429688 519.894531 611.957031 519.894531 L 830.050781 519.894531 C 833.578125 519.894531 836.4375 522.75 836.4375 526.277344 C 836.4375 529.808594 833.578125 532.664062 830.050781 532.664062 Z M 830.050781 554.007812 L 611.957031 554.007812 C 608.429688 554.007812 605.570312 551.152344 605.570312 547.625 C 605.570312 544.09375 608.429688 541.238281 611.957031 541.238281 L 830.050781 541.238281 C 833.578125 541.238281 836.4375 544.09375 836.4375 547.625 C 836.4375 551.152344 833.578125 554.007812 830.050781 554.007812 Z M 830.050781 575.359375 L 611.957031 575.359375 C 608.429688 575.359375 605.570312 572.496094 605.570312 568.976562 C 605.570312 565.449219 608.429688 562.585938 611.957031 562.585938 L 830.050781 562.585938 C 833.578125 562.585938 836.4375 565.449219 836.4375 568.976562 C 836.4375 572.496094 833.578125 575.359375 830.050781 575.359375 Z M 580.394531 506.136719 C 573.496094 517.050781 556.386719 514.160156 546.164062 510.664062 C 513.738281 499.574219 506.03125 456.734375 502.804688 456.757812 C 525.59375 454.480469 550.515625 456.460938 568.402344 472.257812 C 577.210938 480.035156 588.023438 494.070312 580.394531 506.136719 Z M 553.082031 344.175781 C 555.875 334.984375 564.074219 328.484375 573.660156 327.871094 C 608.175781 325.671875 689.265625 320.714844 721.003906 320.714844 C 752.738281 320.714844 833.828125 325.671875 868.34375 327.871094 C 877.9375 328.484375 886.136719 334.984375 888.925781 344.175781 L 910.882812 416.480469 C 910.882812 416.480469 768.667969 399.3125 721.003906 399.3125 C 673.339844 399.3125 531.121094 416.480469 531.121094 416.480469 Z M 1017.652344 431.265625 C 1017.652344 418.097656 992.839844 407.421875 962.226562 407.421875 C 958.257812 407.421875 954.714844 407.609375 951.539062 407.941406 C 942.550781 380.4375 931.632812 350.433594 923.21875 327.964844 C 915.328125 306.894531 895.191406 292.925781 872.679688 292.925781 L 569.328125 292.925781 C 546.816406 292.925781 526.679688 306.894531 518.789062 327.964844 C 510.300781 350.628906 499.261719 380.96875 490.230469 408.671875 C 485.914062 407.867188 480.753906 407.421875 474.558594 407.421875 C 443.945312 407.421875 419.125 418.097656 419.125 431.265625 C 419.125 444.4375 443.945312 455.113281 474.558594 455.113281 C 475.304688 455.113281 476.023438 455.097656 476.742188 455.09375 C 475.816406 459.0625 475.078125 462.695312 474.558594 465.898438 C 470.855469 488.722656 471.675781 540.179688 472.878906 576.757812 L 472.878906 638.96875 C 472.878906 650.15625 481.949219 659.226562 493.136719 659.226562 L 535.777344 659.226562 C 546.964844 659.226562 556.039062 650.15625 556.039062 638.96875 L 556.039062 617.300781 L 884.292969 617.300781 L 884.292969 638.96875 C 884.292969 650.15625 893.359375 659.226562 904.546875 659.226562 L 947.191406 659.226562 C 958.378906 659.226562 967.453125 650.15625 967.453125 638.96875 L 967.453125 617.300781 C 967.453125 617.300781 973.507812 503.261719 967.453125 465.898438 C 966.933594 462.6875 966.191406 459.050781 965.265625 455.074219 C 994.460938 454.394531 1017.652344 443.996094 1017.652344 431.265625 " fill-opacity="1" fill-rule="nonzero"/><path fill="#5ab334" d="M 573.5 0.0273438 C 573.5 0.0273438 571.703125 19.699219 624.433594 33.078125 C 691.074219 49.984375 690.886719 111.949219 690.886719 111.949219 C 690.886719 111.949219 660.898438 59.683594 587.976562 52.058594 C 587.976562 52.058594 649.511719 69.820312 676.085938 118.0625 C 658.683594 122.734375 618.878906 118.199219 587.648438 86.527344 C 551.171875 49.535156 573.5 0.0273438 573.5 0.0273438 " fill-opacity="1" fill-rule="nonzero"/><path fill="#5ab334" d="M 1024.859375 350.675781 C 1006.359375 305.039062 977.246094 263.375 940.65625 230.199219 L 930.589844 241.292969 C 1003.273438 307.203125 1040.5 400.894531 1032.839844 498.511719 C 1019.398438 669.71875 869.792969 798.921875 698.40625 787.203125 C 523.636719 775.261719 392.464844 622.273438 406.757812 448.289062 C 418.375 306.875 522.683594 195.445312 654.78125 166.804688 C 685.78125 160.082031 716.152344 160.761719 747.351562 165.207031 C 779.546875 169.785156 814.617188 172.851562 845.472656 160.332031 C 871.160156 149.910156 893.460938 130.179688 903.402344 103.90625 C 908.578125 90.226562 911.941406 74.632812 911.296875 59.898438 C 911.296875 59.898438 901.550781 86.308594 825.539062 71.210938 C 729.488281 52.136719 699.519531 122.242188 699.519531 122.242188 C 699.519531 122.242188 787.136719 93.617188 860.792969 117.949219 C 773.574219 103.363281 646.453125 145.527344 616.417969 158.402344 C 577.320312 175.171875 539.5 195.511719 506.914062 223.148438 C 474.328125 250.777344 447.804688 283.898438 428.078125 321.574219 C 407.65625 360.59375 395.457031 402.8125 391.820312 447.066406 C 388.1875 491.316406 393.332031 534.960938 407.113281 576.785156 C 420.421875 617.183594 441.183594 654.175781 468.824219 686.753906 C 496.464844 719.332031 529.59375 745.847656 567.289062 765.5625 C 606.316406 785.976562 648.550781 798.175781 692.816406 801.8125 C 737.085938 805.441406 780.746094 800.296875 822.578125 786.523438 C 862.992188 773.222656 900 752.464844 932.585938 724.832031 C 965.171875 697.203125 991.699219 664.085938 1011.421875 626.402344 C 1031.84375 587.386719 1044.039062 545.167969 1047.675781 500.910156 C 1051.933594 449.082031 1044.261719 398.539062 1024.859375 350.675781 " fill-opacity="1" fill-rule="nonzero"/><path fill="#5ab334" d="M 933.984375 194.832031 L 911.78125 168.667969 C 910.046875 166.621094 906.988281 166.371094 904.941406 168.101562 C 902.894531 169.835938 902.640625 172.902344 904.378906 174.949219 L 926.578125 201.105469 L 907.703125 217.113281 L 885.503906 190.949219 C 883.773438 188.902344 880.707031 188.648438 878.660156 190.382812 C 876.617188 192.117188 876.367188 195.183594 878.101562 197.226562 L 900.296875 223.390625 L 892.078125 230.363281 L 929 273.871094 C 940.738281 287.710938 961.476562 289.410156 975.320312 277.675781 C 989.15625 265.941406 990.863281 245.207031 979.121094 231.371094 L 942.203125 187.863281 L 933.984375 194.832031 " fill-opacity="1" fill-rule="nonzero"/></svg>