<svg xmlns="http://www.w3.org/2000/svg" xmlns:xlink="http://www.w3.org/1999/xlink" width="1920" zoomAndPan="magnify" viewBox="0 0 1440 809.999993" height="1080" preserveAspectRatio="xMidYMid meet" version="1.0"><defs><g/></defs><path fill="#040606" d="M 1248.574219 409.125 C 1233.789062 409.125 1221.761719 421.152344 1221.761719 435.9375 C 1221.761719 450.722656 1233.789062 462.75 1248.574219 462.75 C 1263.359375 462.75 1275.386719 450.722656 1275.386719 435.9375 C 1275.386719 421.152344 1263.359375 409.125 1248.574219 409.125 Z M 1248.574219 413.25 C 1261.128906 413.25 1271.261719 423.382812 1271.261719 435.9375 C 1271.261719 448.492188 1261.128906 458.625 1248.574219 458.625 C 1236.019531 458.625 1225.886719 448.492188 1225.886719 435.9375 C 1225.886719 423.382812 1236.019531 413.25 1248.574219 413.25 Z M 1238.261719 421.5 L 1238.261719 450.375 L 1242.386719 450.375 L 1242.386719 442.125 L 1247.535156 442.125 L 1253.628906 450.375 L 1258.757812 450.375 L 1252.160156 441.441406 C 1256.070312 439.972656 1258.886719 436.21875 1258.886719 431.8125 C 1258.886719 426.140625 1254.246094 421.5 1248.574219 421.5 Z M 1242.386719 425.625 L 1248.574219 425.625 C 1252.019531 425.625 1254.761719 428.367188 1254.761719 431.8125 C 1254.761719 435.257812 1252.019531 438 1248.574219 438 L 1242.386719 438 Z M 1242.386719 425.625 " fill-opacity="1" fill-rule="nonzero"/><g fill="#5ab334" fill-opacity="1"><g transform="translate(203.360683, 435.03762)"><g><path d="M 71.511719 1.496094 C 103.457031 1.496094 129.167969 -15.226562 130.914062 -40.558594 L 145.390625 -40.558594 L 145.390625 -45.675781 L 75.378906 -45.675781 L 75.378906 -40.558594 L 123.925781 -40.558594 C 122.675781 -18.21875 100.214844 -3.992188 71.511719 -3.992188 C 40.808594 -3.992188 16.722656 -18.59375 16.722656 -42.433594 C 16.722656 -65.644531 41.183594 -83.242188 73.382812 -83.242188 C 91.851562 -83.242188 109.199219 -77.875 117.5625 -71.386719 L 121.804688 -76.003906 C 112.445312 -82.867188 98.714844 -88.730469 73.257812 -88.730469 C 37.316406 -88.730469 9.734375 -68.015625 9.734375 -42.433594 C 9.734375 -16.097656 36.941406 1.496094 71.511719 1.496094 Z M 71.511719 1.496094 "/></g></g></g><g fill="#5ab334" fill-opacity="1"><g transform="translate(353.993251, 435.03762)"><g><path d="M 9.734375 0 L 16.222656 0 L 16.222656 -36.816406 C 16.847656 -52.664062 29.078125 -62.898438 50.542969 -62.898438 C 54.660156 -62.898438 56.160156 -62.773438 59.527344 -62.023438 L 60.652344 -67.265625 C 57.28125 -67.765625 55.160156 -68.015625 50.542969 -68.015625 C 33.695312 -68.015625 22.214844 -62.148438 16.597656 -52.539062 L 15.476562 -52.539062 L 12.980469 -66.644531 L 9.734375 -66.644531 Z M 9.734375 0 "/></g></g><g transform="translate(416.892025, 435.03762)"><g><path d="M 57.90625 1.496094 C 74.253906 1.496094 90.105469 -2.246094 100.835938 -10.859375 L 97.46875 -14.976562 C 88.109375 -7.238281 72.507812 -3.496094 57.90625 -3.496094 C 32.574219 -3.496094 13.726562 -14.601562 12.855469 -30.949219 L 105.582031 -30.949219 C 105.703125 -31.699219 105.828125 -32.574219 105.828125 -33.320312 C 105.828125 -53.789062 83.863281 -68.015625 56.160156 -68.015625 C 28.453125 -68.015625 6.238281 -53.789062 6.238281 -33.320312 C 6.238281 -12.730469 26.707031 1.496094 57.90625 1.496094 Z M 12.855469 -35.816406 C 13.851562 -52.042969 33.945312 -63.023438 56.160156 -63.023438 C 78.375 -63.023438 97.96875 -52.042969 99.339844 -35.816406 Z M 12.855469 -35.816406 "/></g></g></g><g fill="#5ab334" fill-opacity="1"><g transform="translate(528.961649, 435.03762)"><g><path d="M 57.90625 1.496094 C 74.253906 1.496094 90.105469 -2.246094 100.835938 -10.859375 L 97.46875 -14.976562 C 88.109375 -7.238281 72.507812 -3.496094 57.90625 -3.496094 C 32.574219 -3.496094 13.726562 -14.601562 12.855469 -30.949219 L 105.582031 -30.949219 C 105.703125 -31.699219 105.828125 -32.574219 105.828125 -33.320312 C 105.828125 -53.789062 83.863281 -68.015625 56.160156 -68.015625 C 28.453125 -68.015625 6.238281 -53.789062 6.238281 -33.320312 C 6.238281 -12.730469 26.707031 1.496094 57.90625 1.496094 Z M 12.855469 -35.816406 C 13.851562 -52.042969 33.945312 -63.023438 56.160156 -63.023438 C 78.375 -63.023438 97.96875 -52.042969 99.339844 -35.816406 Z M 12.855469 -35.816406 "/></g></g></g><g fill="#5ab334" fill-opacity="1"><g transform="translate(641.031256, 435.03762)"><g><path d="M 9.734375 0 L 16.222656 0 L 16.222656 -36.316406 C 16.222656 -52.042969 32.199219 -62.898438 52.289062 -62.898438 C 72.882812 -62.898438 89.480469 -52.789062 89.480469 -36.316406 L 89.480469 0 L 95.96875 0 L 95.96875 -36.441406 C 95.96875 -55.035156 77.5 -68.015625 54.039062 -68.015625 C 37.8125 -68.015625 23.835938 -61.777344 16.722656 -51.667969 L 15.601562 -51.667969 L 12.980469 -66.644531 L 9.734375 -66.644531 Z M 9.734375 0 "/></g></g></g><g fill="#000000" fill-opacity="1"><g transform="translate(746.719734, 435.03762)"><g/></g></g><g fill="#000000" fill-opacity="1"><g transform="translate(779.042711, 435.03762)"><g><path d="M 14.226562 0 L 66.019531 0 C 100.714844 0 124.550781 -18.21875 124.550781 -43.679688 C 124.550781 -69.140625 100.714844 -87.359375 66.019531 -87.359375 L 14.226562 -87.359375 Z M 20.839844 -5.492188 L 20.839844 -81.992188 L 66.019531 -81.992188 C 94.597656 -81.992188 118.058594 -66.019531 118.058594 -43.679688 C 118.058594 -21.464844 94.597656 -5.492188 66.019531 -5.492188 Z M 20.839844 -5.492188 "/></g></g></g><g fill="#000000" fill-opacity="1"><g transform="translate(913.576189, 435.03762)"><g><path d="M 9.734375 0 L 16.222656 0 L 16.222656 -36.816406 C 16.847656 -52.664062 29.078125 -62.898438 50.542969 -62.898438 C 54.660156 -62.898438 56.160156 -62.773438 59.527344 -62.023438 L 60.652344 -67.265625 C 57.28125 -67.765625 55.160156 -68.015625 50.542969 -68.015625 C 33.695312 -68.015625 22.214844 -62.148438 16.597656 -52.539062 L 15.476562 -52.539062 L 12.980469 -66.644531 L 9.734375 -66.644531 Z M 9.734375 0 "/></g></g><g transform="translate(976.474964, 435.03762)"><g><path d="M 12.980469 -84.238281 C 15.601562 -84.238281 17.972656 -86.484375 17.972656 -89.230469 C 17.972656 -92.101562 15.601562 -94.347656 12.980469 -94.347656 C 10.484375 -94.347656 7.988281 -92.101562 7.988281 -89.230469 C 7.988281 -86.484375 10.484375 -84.238281 12.980469 -84.238281 Z M 9.734375 0 L 16.222656 0 L 16.222656 -66.644531 L 9.734375 -66.644531 Z M 9.734375 0 "/></g></g></g><g fill="#000000" fill-opacity="1"><g transform="translate(1002.433175, 435.03762)"><g><path d="M 41.433594 1.496094 L 48.421875 1.496094 L 89.230469 -66.644531 L 82.492188 -66.644531 L 45.425781 -4.992188 L 44.429688 -4.992188 L 7.238281 -66.644531 L 0.5 -66.644531 Z M 41.433594 1.496094 "/></g></g></g><g fill="#000000" fill-opacity="1"><g transform="translate(1092.163753, 435.03762)"><g><path d="M 57.90625 1.496094 C 74.253906 1.496094 90.105469 -2.246094 100.835938 -10.859375 L 97.46875 -14.976562 C 88.109375 -7.238281 72.507812 -3.496094 57.90625 -3.496094 C 32.574219 -3.496094 13.726562 -14.601562 12.855469 -30.949219 L 105.582031 -30.949219 C 105.703125 -31.699219 105.828125 -32.574219 105.828125 -33.320312 C 105.828125 -53.789062 83.863281 -68.015625 56.160156 -68.015625 C 28.453125 -68.015625 6.238281 -53.789062 6.238281 -33.320312 C 6.238281 -12.730469 26.707031 1.496094 57.90625 1.496094 Z M 12.855469 -35.816406 C 13.851562 -52.042969 33.945312 -63.023438 56.160156 -63.023438 C 78.375 -63.023438 97.96875 -52.042969 99.339844 -35.816406 Z M 12.855469 -35.816406 "/></g></g></g></svg>