<svg xmlns="http://www.w3.org/2000/svg" xmlns:xlink="http://www.w3.org/1999/xlink" width="1920" zoomAndPan="magnify" viewBox="0 0 1440 149.999998" height="200" preserveAspectRatio="xMidYMid meet" version="1.0"><defs><g/><clipPath id="1387f64516"><path d="M 354.105469 12.351562 L 448.75 12.351562 L 448.75 107.539062 L 354.105469 107.539062 Z M 354.105469 12.351562 " clip-rule="nonzero"/></clipPath><clipPath id="cd93a3e007"><path d="M 531.882812 9.191406 L 634.425781 9.191406 L 634.425781 111.734375 L 531.882812 111.734375 Z M 531.882812 9.191406 " clip-rule="nonzero"/></clipPath><clipPath id="7ac36702c8"><path d="M 715.460938 11.195312 L 842.71875 11.195312 L 842.71875 108.996094 L 715.460938 108.996094 Z M 715.460938 11.195312 " clip-rule="nonzero"/></clipPath><clipPath id="af4b158765"><path d="M 784 11.195312 L 786 11.195312 L 786 108.996094 L 784 108.996094 Z M 784 11.195312 " clip-rule="nonzero"/></clipPath><clipPath id="63a6e5bd20"><path d="M 940.964844 9.191406 L 996 9.191406 L 996 63.941406 L 940.964844 63.941406 Z M 940.964844 9.191406 " clip-rule="nonzero"/></clipPath><clipPath id="a25b16b8d9"><path d="M 1194 16 L 1195.964844 16 L 1195.964844 57 L 1194 57 Z M 1194 16 " clip-rule="nonzero"/></clipPath></defs><path fill="#8ff3ad" d="M 334.707031 71.777344 L 322.210938 70.144531 C 322.210938 70.144531 318.738281 66.648438 321.285156 65.714844 L 333.320312 66.179688 C 333.320312 66.179688 334.476562 65.949219 335.171875 67.8125 C 335.171875 67.8125 337.71875 71.777344 334.707031 71.777344 Z M 364.515625 78.507812 C 362.375 78.75 358.8125 79.148438 358.8125 79.148438 C 357.738281 79.269531 356.683594 78.960938 355.84375 78.28125 C 355 77.605469 354.472656 76.636719 354.351562 75.554688 C 354.351562 75.554688 352.101562 55.183594 352.101562 55.179688 C 351.980469 54.101562 352.285156 53.039062 352.960938 52.1875 C 353.148438 51.949219 353.363281 51.738281 353.59375 51.550781 L 330.4375 51.585938 L 334.484375 35.140625 C 334.484375 35.140625 335 32.128906 337.207031 32.59375 L 361.003906 32.59375 C 361.933594 31.421875 362.953125 30.136719 363.960938 28.871094 L 336.714844 28.871094 C 331.050781 28.871094 330.671875 31.65625 330.671875 31.65625 L 325.761719 48.457031 C 324.269531 48.457031 321.113281 48.457031 320.976562 48.457031 C 319.378906 48.457031 316.746094 51.773438 318.890625 52.652344 C 318.890625 52.652344 321.027344 53.527344 323.007812 54.339844 C 319.652344 57.671875 315.628906 61.015625 315 65.945312 C 314.578125 69.253906 314.089844 73.726562 315.179688 77.300781 C 315.355469 77.890625 315.582031 78.457031 315.855469 78.984375 L 315.855469 95.089844 C 315.855469 96.375 316.890625 97.421875 318.167969 97.421875 L 330.203125 97.421875 C 331.484375 97.421875 332.519531 96.375 332.519531 95.089844 L 332.519531 85.0625 C 332.898438 85.046875 333.277344 85.035156 333.644531 85.039062 C 343.304688 85.117188 352.242188 85.207031 361.917969 85.234375 L 361.917969 85.238281 C 362.03125 85.238281 362.140625 85.238281 362.253906 85.234375 C 362.363281 85.238281 362.476562 85.238281 362.589844 85.238281 L 362.589844 85.234375 C 362.816406 85.234375 363.042969 85.234375 363.269531 85.234375 L 366.183594 81.558594 C 365.585938 80.566406 365.027344 79.546875 364.515625 78.507812 " fill-opacity="1" fill-rule="nonzero"/><g clip-path="url(#1387f64516)"><path fill="#8ff3ad" d="M 436.527344 65.828125 C 436.074219 68.558594 435.300781 71.246094 434.226562 73.8125 C 433.910156 74.566406 434.132812 75.441406 434.765625 75.953125 L 440.125 80.269531 L 429.6875 93.421875 L 424.332031 89.105469 C 423.699219 88.59375 422.804688 88.570312 422.140625 89.046875 C 419.894531 90.667969 417.464844 92.019531 414.921875 93.0625 C 414.167969 93.371094 413.710938 94.144531 413.800781 94.960938 L 414.558594 101.824219 L 397.953125 103.6875 L 397.191406 96.824219 C 397.101562 96.011719 396.488281 95.355469 395.6875 95.222656 C 392.976562 94.769531 390.3125 93.988281 387.765625 92.90625 C 387.015625 92.585938 386.148438 92.808594 385.640625 93.449219 L 381.355469 98.847656 L 368.304688 88.332031 L 372.589844 82.933594 C 373.097656 82.292969 373.121094 81.390625 372.648438 80.726562 C 371.039062 78.460938 369.699219 76.011719 368.664062 73.449219 C 368.355469 72.6875 367.585938 72.226562 366.78125 72.320312 L 359.96875 73.082031 L 358.117188 56.347656 L 364.929688 55.582031 C 365.738281 55.492188 366.386719 54.871094 366.519531 54.0625 C 366.96875 51.335938 367.742188 48.648438 368.816406 46.082031 C 369.132812 45.324219 368.914062 44.453125 368.277344 43.941406 L 362.921875 39.625 L 373.355469 26.472656 L 378.714844 30.789062 C 379.347656 31.300781 380.242188 31.324219 380.90625 30.847656 C 383.152344 29.226562 385.582031 27.875 388.125 26.832031 C 388.878906 26.523438 389.335938 25.746094 389.246094 24.933594 L 388.488281 18.070312 L 405.09375 16.203125 L 405.851562 23.070312 C 405.941406 23.882812 406.558594 24.535156 407.359375 24.671875 C 410.070312 25.125 412.734375 25.90625 415.28125 26.988281 C 416.03125 27.304688 416.898438 27.085938 417.40625 26.445312 L 421.6875 21.046875 L 434.742188 31.5625 L 430.457031 36.960938 C 429.949219 37.601562 429.925781 38.5 430.398438 39.167969 C 432.007812 41.433594 433.347656 43.882812 434.382812 46.445312 C 434.691406 47.203125 435.460938 47.664062 436.265625 47.574219 L 443.078125 46.808594 L 444.925781 63.546875 L 438.117188 64.308594 C 437.308594 64.402344 436.660156 65.019531 436.527344 65.828125 Z M 444.480469 42.96875 L 437.203125 43.785156 C 436.335938 41.84375 435.308594 39.96875 434.136719 38.183594 L 438.710938 32.417969 C 439.335938 31.628906 439.210938 30.476562 438.425781 29.84375 L 422.539062 17.042969 C 421.753906 16.414062 420.613281 16.542969 419.988281 17.328125 L 415.410156 23.097656 C 413.425781 22.335938 411.386719 21.738281 409.316406 21.316406 L 408.503906 13.980469 C 408.390625 12.976562 407.492188 12.253906 406.496094 12.363281 L 386.28125 14.632812 C 385.285156 14.746094 384.566406 15.652344 384.675781 16.65625 L 385.488281 23.988281 C 383.558594 24.863281 381.699219 25.898438 379.929688 27.078125 L 374.207031 22.46875 C 373.421875 21.839844 372.28125 21.96875 371.652344 22.757812 L 358.949219 38.765625 C 358.324219 39.558594 358.453125 40.707031 359.234375 41.339844 L 364.957031 45.953125 C 364.203125 47.949219 363.609375 50.007812 363.1875 52.09375 L 355.910156 52.914062 C 354.914062 53.023438 354.195312 53.929688 354.308594 54.933594 L 356.558594 75.308594 C 356.671875 76.3125 357.570312 77.035156 358.566406 76.921875 L 365.84375 76.109375 C 366.710938 78.050781 367.738281 79.925781 368.910156 81.707031 L 364.335938 87.476562 C 363.707031 88.265625 363.835938 89.417969 364.617188 90.046875 L 380.507812 102.847656 C 381.289062 103.480469 382.433594 103.351562 383.058594 102.5625 L 387.636719 96.796875 C 389.617188 97.558594 391.660156 98.15625 393.730469 98.578125 L 394.542969 105.914062 C 394.652344 106.917969 395.550781 107.640625 396.550781 107.527344 L 416.765625 105.257812 C 417.761719 105.148438 418.480469 104.242188 418.371094 103.238281 L 417.558594 95.902344 C 419.488281 95.03125 421.347656 93.996094 423.117188 92.8125 L 428.839844 97.425781 C 429.621094 98.054688 430.765625 97.925781 431.390625 97.136719 L 444.09375 81.125 C 444.722656 80.335938 444.59375 79.183594 443.8125 78.554688 L 438.089844 73.941406 C 438.84375 71.941406 439.4375 69.886719 439.855469 67.796875 L 447.136719 66.980469 C 448.132812 66.871094 448.847656 65.964844 448.738281 64.960938 L 446.488281 44.585938 C 446.375 43.582031 445.476562 42.855469 444.480469 42.96875 " fill-opacity="1" fill-rule="nonzero"/></g><path fill="#8ff3ad" d="M 426.011719 75.65625 L 413.796875 62.359375 L 407.269531 61.839844 L 406.753906 61.273438 L 413.1875 54.546875 L 419.511719 54.429688 L 423.914062 49.828125 L 424.507812 42.832031 L 423.632812 41.984375 L 417.109375 48.804688 L 412.429688 44.257812 L 418.953125 37.4375 L 418.03125 36.542969 L 411.117188 37.394531 L 406.714844 41.996094 L 406.832031 48.371094 L 400.742188 54.734375 L 391.402344 44.570312 L 390.980469 42.242188 L 385.617188 37.71875 L 382.769531 40.378906 L 386.835938 46.109375 L 389.109375 46.710938 L 398.570312 57.007812 L 378.566406 77.925781 L 378.390625 81.398438 L 381.460938 84.382812 L 384.921875 84.097656 L 404.578125 63.546875 L 404.976562 63.980469 L 404.996094 70.578125 L 417.210938 83.867188 L 423.535156 84.382812 L 426.035156 82.046875 L 426.011719 75.65625 " fill-opacity="1" fill-rule="nonzero"/><g fill="#ffffff" fill-opacity="1"><g transform="translate(341.682325, 129.878199)"><g><path d="M 13.1875 0 L 9.046875 -6.625 L 4.0625 -6.625 L 4.0625 0 L 1.90625 0 L 1.90625 -15.96875 L 9.421875 -15.96875 C 11.210938 -15.96875 12.597656 -15.5625 13.578125 -14.75 C 14.554688 -13.945312 15.046875 -12.828125 15.046875 -11.390625 C 15.046875 -10.210938 14.695312 -9.21875 14 -8.40625 C 13.3125 -7.59375 12.359375 -7.082031 11.140625 -6.875 L 15.6875 0 Z M 12.875 -11.375 C 12.875 -12.300781 12.554688 -13.007812 11.921875 -13.5 C 11.296875 -13.988281 10.390625 -14.234375 9.203125 -14.234375 L 4.0625 -14.234375 L 4.0625 -8.34375 L 9.296875 -8.34375 C 10.429688 -8.34375 11.3125 -8.609375 11.9375 -9.140625 C 12.5625 -9.671875 12.875 -10.414062 12.875 -11.375 Z M 12.875 -11.375 "/></g></g></g><g fill="#ffffff" fill-opacity="1"><g transform="translate(358.434334, 129.878199)"><g><path d="M 3.125 -5.703125 C 3.125 -4.296875 3.414062 -3.207031 4 -2.4375 C 4.582031 -1.675781 5.429688 -1.296875 6.546875 -1.296875 C 7.429688 -1.296875 8.140625 -1.472656 8.671875 -1.828125 C 9.203125 -2.191406 9.5625 -2.644531 9.75 -3.1875 L 11.546875 -2.671875 C 10.816406 -0.734375 9.148438 0.234375 6.546875 0.234375 C 4.734375 0.234375 3.351562 -0.304688 2.40625 -1.390625 C 1.457031 -2.472656 0.984375 -4.078125 0.984375 -6.203125 C 0.984375 -8.234375 1.457031 -9.785156 2.40625 -10.859375 C 3.351562 -11.941406 4.707031 -12.484375 6.46875 -12.484375 C 10.070312 -12.484375 11.875 -10.3125 11.875 -5.96875 L 11.875 -5.703125 Z M 9.765625 -7.265625 C 9.648438 -8.554688 9.320312 -9.5 8.78125 -10.09375 C 8.238281 -10.6875 7.457031 -10.984375 6.4375 -10.984375 C 5.445312 -10.984375 4.660156 -10.648438 4.078125 -9.984375 C 3.503906 -9.328125 3.195312 -8.421875 3.15625 -7.265625 Z M 9.765625 -7.265625 "/></g></g></g><g fill="#ffffff" fill-opacity="1"><g transform="translate(371.335306, 129.878199)"><g><path d="M 11.9375 -6.1875 C 11.9375 -1.90625 10.429688 0.234375 7.421875 0.234375 C 5.535156 0.234375 4.265625 -0.476562 3.609375 -1.90625 L 3.5625 -1.90625 C 3.59375 -1.84375 3.609375 -1.203125 3.609375 0.015625 L 3.609375 4.8125 L 1.5625 4.8125 L 1.5625 -9.75 C 1.5625 -11.007812 1.539062 -11.847656 1.5 -12.265625 L 3.46875 -12.265625 C 3.476562 -12.234375 3.488281 -12.125 3.5 -11.9375 C 3.519531 -11.75 3.535156 -11.460938 3.546875 -11.078125 C 3.566406 -10.691406 3.578125 -10.425781 3.578125 -10.28125 L 3.625 -10.28125 C 3.988281 -11.039062 4.46875 -11.59375 5.0625 -11.9375 C 5.65625 -12.289062 6.441406 -12.46875 7.421875 -12.46875 C 8.929688 -12.46875 10.0625 -11.960938 10.8125 -10.953125 C 11.5625 -9.941406 11.9375 -8.351562 11.9375 -6.1875 Z M 9.78125 -6.140625 C 9.78125 -7.847656 9.550781 -9.066406 9.09375 -9.796875 C 8.632812 -10.535156 7.90625 -10.90625 6.90625 -10.90625 C 6.09375 -10.90625 5.457031 -10.734375 5 -10.390625 C 4.539062 -10.046875 4.191406 -9.515625 3.953125 -8.796875 C 3.722656 -8.078125 3.609375 -7.140625 3.609375 -5.984375 C 3.609375 -4.367188 3.863281 -3.179688 4.375 -2.421875 C 4.882812 -1.660156 5.71875 -1.28125 6.875 -1.28125 C 7.882812 -1.28125 8.617188 -1.648438 9.078125 -2.390625 C 9.546875 -3.140625 9.78125 -4.390625 9.78125 -6.140625 Z M 9.78125 -6.140625 "/></g></g></g><g fill="#ffffff" fill-opacity="1"><g transform="translate(384.236278, 129.878199)"><g><path d="M 4.6875 0.234375 C 3.457031 0.234375 2.53125 -0.0859375 1.90625 -0.734375 C 1.289062 -1.390625 0.984375 -2.285156 0.984375 -3.421875 C 0.984375 -4.691406 1.398438 -5.664062 2.234375 -6.34375 C 3.066406 -7.019531 4.414062 -7.382812 6.28125 -7.4375 L 9.03125 -7.484375 L 9.03125 -8.140625 C 9.03125 -9.140625 8.816406 -9.851562 8.390625 -10.28125 C 7.972656 -10.71875 7.3125 -10.9375 6.40625 -10.9375 C 5.488281 -10.9375 4.820312 -10.78125 4.40625 -10.46875 C 3.988281 -10.15625 3.738281 -9.660156 3.65625 -8.984375 L 1.53125 -9.171875 C 1.875 -11.378906 3.515625 -12.484375 6.453125 -12.484375 C 7.992188 -12.484375 9.148438 -12.128906 9.921875 -11.421875 C 10.703125 -10.710938 11.09375 -9.691406 11.09375 -8.359375 L 11.09375 -3.078125 C 11.09375 -2.472656 11.171875 -2.015625 11.328125 -1.703125 C 11.484375 -1.398438 11.785156 -1.25 12.234375 -1.25 C 12.429688 -1.25 12.65625 -1.28125 12.90625 -1.34375 L 12.90625 -0.0625 C 12.394531 0.0507812 11.867188 0.109375 11.328125 0.109375 C 10.578125 0.109375 10.03125 -0.0859375 9.6875 -0.484375 C 9.34375 -0.878906 9.144531 -1.5 9.09375 -2.34375 L 9.03125 -2.34375 C 8.507812 -1.40625 7.898438 -0.738281 7.203125 -0.34375 C 6.515625 0.0390625 5.675781 0.234375 4.6875 0.234375 Z M 5.15625 -1.296875 C 5.90625 -1.296875 6.566406 -1.46875 7.140625 -1.8125 C 7.722656 -2.15625 8.179688 -2.617188 8.515625 -3.203125 C 8.859375 -3.796875 9.03125 -4.410156 9.03125 -5.046875 L 9.03125 -6.046875 L 6.796875 -6 C 5.835938 -5.988281 5.109375 -5.890625 4.609375 -5.703125 C 4.117188 -5.523438 3.738281 -5.25 3.46875 -4.875 C 3.207031 -4.5 3.078125 -4.003906 3.078125 -3.390625 C 3.078125 -2.722656 3.253906 -2.207031 3.609375 -1.84375 C 3.972656 -1.476562 4.488281 -1.296875 5.15625 -1.296875 Z M 5.15625 -1.296875 "/></g></g></g><g fill="#ffffff" fill-opacity="1"><g transform="translate(397.137251, 129.878199)"><g><path d="M 1.546875 -14.859375 L 1.546875 -16.8125 L 3.59375 -16.8125 L 3.59375 -14.859375 Z M 1.546875 0 L 1.546875 -12.265625 L 3.59375 -12.265625 L 3.59375 0 Z M 1.546875 0 "/></g></g></g><g fill="#ffffff" fill-opacity="1"><g transform="translate(402.290843, 129.878199)"><g><path d="M 1.609375 0 L 1.609375 -9.40625 C 1.609375 -10.257812 1.585938 -11.210938 1.546875 -12.265625 L 3.46875 -12.265625 C 3.53125 -10.867188 3.5625 -10.03125 3.5625 -9.75 L 3.609375 -9.75 C 3.929688 -10.800781 4.300781 -11.519531 4.71875 -11.90625 C 5.144531 -12.289062 5.742188 -12.484375 6.515625 -12.484375 C 6.785156 -12.484375 7.0625 -12.445312 7.34375 -12.375 L 7.34375 -10.5 C 7.070312 -10.570312 6.707031 -10.609375 6.25 -10.609375 C 5.40625 -10.609375 4.757812 -10.242188 4.3125 -9.515625 C 3.863281 -8.785156 3.640625 -7.742188 3.640625 -6.390625 L 3.640625 0 Z M 1.609375 0 "/></g></g></g><g fill="#ffffff" fill-opacity="1"><g transform="translate(410.01557, 129.878199)"><g><path d="M 10.765625 -3.390625 C 10.765625 -2.234375 10.328125 -1.335938 9.453125 -0.703125 C 8.578125 -0.078125 7.359375 0.234375 5.796875 0.234375 C 4.265625 0.234375 3.082031 -0.015625 2.25 -0.515625 C 1.425781 -1.023438 0.890625 -1.8125 0.640625 -2.875 L 2.453125 -3.234375 C 2.617188 -2.578125 2.972656 -2.09375 3.515625 -1.78125 C 4.066406 -1.476562 4.828125 -1.328125 5.796875 -1.328125 C 6.828125 -1.328125 7.582031 -1.484375 8.0625 -1.796875 C 8.539062 -2.117188 8.78125 -2.597656 8.78125 -3.234375 C 8.78125 -3.710938 8.613281 -4.101562 8.28125 -4.40625 C 7.945312 -4.707031 7.410156 -4.957031 6.671875 -5.15625 L 5.21875 -5.546875 C 4.039062 -5.847656 3.203125 -6.140625 2.703125 -6.421875 C 2.210938 -6.710938 1.828125 -7.066406 1.546875 -7.484375 C 1.273438 -7.898438 1.140625 -8.410156 1.140625 -9.015625 C 1.140625 -10.128906 1.535156 -10.976562 2.328125 -11.5625 C 3.128906 -12.15625 4.289062 -12.453125 5.8125 -12.453125 C 7.164062 -12.453125 8.238281 -12.210938 9.03125 -11.734375 C 9.832031 -11.265625 10.335938 -10.503906 10.546875 -9.453125 L 8.71875 -9.21875 C 8.601562 -9.757812 8.296875 -10.175781 7.796875 -10.46875 C 7.304688 -10.757812 6.644531 -10.90625 5.8125 -10.90625 C 4.894531 -10.90625 4.210938 -10.765625 3.765625 -10.484375 C 3.328125 -10.210938 3.109375 -9.789062 3.109375 -9.21875 C 3.109375 -8.875 3.195312 -8.585938 3.375 -8.359375 C 3.5625 -8.128906 3.832031 -7.9375 4.1875 -7.78125 C 4.539062 -7.625 5.289062 -7.40625 6.4375 -7.125 C 7.519531 -6.851562 8.296875 -6.601562 8.765625 -6.375 C 9.242188 -6.144531 9.617188 -5.890625 9.890625 -5.609375 C 10.171875 -5.328125 10.382812 -5.003906 10.53125 -4.640625 C 10.6875 -4.273438 10.765625 -3.859375 10.765625 -3.390625 Z M 10.765625 -3.390625 "/></g></g></g><g clip-path="url(#cd93a3e007)"><path fill="#8ff3ad" d="M 583.152344 9.191406 C 554.835938 9.191406 531.882812 32.144531 531.882812 60.460938 C 531.882812 88.777344 554.835938 111.734375 583.152344 111.734375 C 611.46875 111.734375 634.425781 88.777344 634.425781 60.460938 C 634.425781 32.144531 611.46875 9.191406 583.152344 9.191406 Z M 562.050781 23.433594 C 567.472656 23.433594 571.886719 27.847656 571.886719 33.273438 C 571.886719 38.695312 567.472656 43.109375 562.050781 43.109375 C 556.625 43.109375 552.210938 38.695312 552.210938 33.269531 C 552.210938 27.847656 556.625 23.433594 562.050781 23.433594 Z M 571.617188 70.558594 L 571.617188 86.210938 C 571.617188 89.785156 568.703125 92.695312 565.121094 92.695312 L 558.972656 92.695312 C 555.398438 92.695312 552.488281 89.785156 552.488281 86.210938 L 552.488281 71.914062 C 549.925781 71.007812 548.136719 68.578125 548.136719 65.742188 L 548.136719 50.992188 C 548.136719 47.375 551.078125 44.433594 554.691406 44.433594 L 585.84375 44.433594 C 588.238281 44.433594 590.1875 46.386719 590.1875 48.789062 C 590.1875 51.238281 588.242188 53.1875 585.851562 53.1875 L 571.617188 53.195312 Z M 620.449219 72.175781 L 620.449219 76.09375 C 620.449219 77.941406 618.945312 79.449219 617.09375 79.449219 L 614.472656 79.449219 C 614.132812 80.566406 613.6875 81.640625 613.140625 82.664062 L 615 84.523438 C 616.308594 85.828125 616.308594 87.957031 615 89.261719 L 612.222656 92.039062 C 611.589844 92.671875 610.746094 93.019531 609.851562 93.019531 C 608.957031 93.019531 608.113281 92.671875 607.480469 92.039062 L 605.621094 90.183594 C 604.601562 90.730469 603.527344 91.171875 602.410156 91.511719 L 602.410156 94.136719 C 602.410156 95.984375 600.902344 97.492188 599.050781 97.492188 L 595.136719 97.492188 C 593.285156 97.492188 591.78125 95.984375 591.78125 94.136719 L 591.78125 91.511719 C 590.664062 91.171875 589.585938 90.730469 588.5625 90.183594 L 586.707031 92.039062 C 586.074219 92.671875 585.230469 93.019531 584.335938 93.019531 C 583.4375 93.019531 582.597656 92.671875 581.964844 92.039062 L 579.1875 89.261719 C 578.558594 88.632812 578.207031 87.789062 578.207031 86.890625 C 578.207031 85.996094 578.558594 85.152344 579.191406 84.519531 L 581.046875 82.664062 C 580.5 81.640625 580.054688 80.566406 579.714844 79.449219 L 577.09375 79.449219 C 575.242188 79.449219 573.738281 77.941406 573.738281 76.09375 L 573.738281 72.175781 C 573.738281 70.324219 575.242188 68.820312 577.09375 68.820312 L 579.714844 68.820312 C 580.054688 67.703125 580.5 66.628906 581.046875 65.605469 L 579.1875 63.746094 C 578.554688 63.117188 578.207031 62.273438 578.207031 61.375 C 578.207031 60.480469 578.558594 59.636719 579.191406 59.003906 L 581.964844 56.230469 C 583.269531 54.921875 585.398438 54.921875 586.707031 56.230469 L 588.5625 58.089844 C 589.585938 57.539062 590.664062 57.097656 591.78125 56.757812 L 591.78125 54.132812 C 591.78125 52.285156 593.285156 50.777344 595.136719 50.777344 L 599.050781 50.777344 C 600.902344 50.777344 602.40625 52.285156 602.40625 54.132812 L 602.40625 56.757812 C 603.523438 57.097656 604.597656 57.539062 605.621094 58.085938 L 607.480469 56.230469 C 608.785156 54.921875 610.914062 54.921875 612.222656 56.226562 L 615 59.007812 C 616.304688 60.3125 616.304688 62.441406 615 63.746094 L 613.140625 65.605469 C 613.6875 66.628906 614.132812 67.703125 614.46875 68.820312 L 617.09375 68.820312 C 618.945312 68.820312 620.449219 70.328125 620.449219 72.175781 Z M 620.449219 72.175781 " fill-opacity="1" fill-rule="nonzero"/></g><path fill="#8ff3ad" d="M 586.769531 48.847656 C 586.769531 48.273438 586.355469 47.855469 585.84375 47.855469 L 554.691406 47.855469 C 552.960938 47.855469 551.554688 49.261719 551.554688 50.992188 L 551.554688 65.742188 C 551.554688 67.355469 552.765625 68.695312 554.367188 68.859375 C 555.242188 68.945312 555.90625 69.679688 555.90625 70.558594 L 555.90625 86.210938 C 555.90625 87.902344 557.28125 89.277344 558.972656 89.277344 L 565.121094 89.277344 C 566.816406 89.277344 568.199219 87.902344 568.199219 86.210938 L 568.199219 51.488281 C 568.199219 50.542969 568.960938 49.777344 569.90625 49.777344 L 585.851562 49.769531 C 586.355469 49.769531 586.769531 49.355469 586.769531 48.847656 Z M 586.769531 48.847656 " fill-opacity="1" fill-rule="nonzero"/><path fill="#8ff3ad" d="M 597.09375 66.390625 C 592.824219 66.390625 589.347656 69.863281 589.347656 74.136719 C 589.347656 78.40625 592.824219 81.882812 597.09375 81.882812 C 601.367188 81.882812 604.839844 78.40625 604.839844 74.136719 C 604.839844 69.863281 601.367188 66.390625 597.09375 66.390625 Z M 597.09375 66.390625 " fill-opacity="1" fill-rule="nonzero"/><path fill="#8ff3ad" d="M 562.050781 39.691406 C 565.589844 39.691406 568.46875 36.8125 568.46875 33.269531 C 568.46875 29.730469 565.589844 26.851562 562.050781 26.851562 C 558.507812 26.851562 555.628906 29.730469 555.628906 33.269531 C 555.628906 36.8125 558.507812 39.691406 562.050781 39.691406 Z M 562.050781 39.691406 " fill-opacity="1" fill-rule="nonzero"/><path fill="#8ff3ad" d="M 613.164062 72.238281 C 613.164062 72.238281 613.160156 72.238281 613.160156 72.238281 C 613.15625 72.238281 613.152344 72.238281 613.148438 72.238281 C 612.972656 72.238281 612.804688 72.203125 612.644531 72.152344 C 612.617188 72.144531 612.589844 72.136719 612.5625 72.125 C 612.40625 72.066406 612.261719 71.988281 612.132812 71.886719 C 612.109375 71.871094 612.085938 71.851562 612.0625 71.832031 C 611.933594 71.722656 611.820312 71.601562 611.726562 71.457031 C 611.71875 71.441406 611.710938 71.425781 611.699219 71.410156 C 611.609375 71.257812 611.542969 71.097656 611.5 70.921875 C 611.496094 70.914062 611.492188 70.90625 611.492188 70.898438 C 611.121094 69.230469 610.476562 67.667969 609.566406 66.246094 C 609.511719 66.164062 609.472656 66.078125 609.4375 65.992188 C 609.429688 65.980469 609.421875 65.96875 609.417969 65.957031 C 609.339844 65.761719 609.304688 65.554688 609.300781 65.351562 C 609.300781 65.339844 609.296875 65.324219 609.296875 65.3125 C 609.300781 65.105469 609.339844 64.902344 609.414062 64.710938 C 609.421875 64.699219 609.421875 64.683594 609.429688 64.671875 C 609.511719 64.472656 609.632812 64.289062 609.789062 64.128906 C 609.792969 64.125 609.792969 64.121094 609.796875 64.117188 L 609.808594 64.101562 C 609.8125 64.101562 609.8125 64.101562 609.8125 64.101562 L 612.582031 61.332031 L 609.804688 58.648438 L 607.113281 61.433594 C 607.105469 61.4375 607.097656 61.441406 607.089844 61.449219 C 606.945312 61.589844 606.777344 61.695312 606.597656 61.777344 C 606.554688 61.792969 606.515625 61.808594 606.472656 61.824219 C 606.289062 61.886719 606.101562 61.933594 605.90625 61.933594 C 605.90625 61.933594 605.902344 61.933594 605.902344 61.933594 C 605.710938 61.933594 605.519531 61.890625 605.332031 61.820312 C 605.277344 61.800781 605.226562 61.777344 605.171875 61.75 C 605.109375 61.71875 605.042969 61.703125 604.980469 61.664062 C 603.5625 60.753906 602 60.105469 600.328125 59.738281 C 600.285156 59.726562 600.246094 59.710938 600.203125 59.695312 C 600.140625 59.675781 600.078125 59.660156 600.019531 59.636719 C 599.964844 59.613281 599.917969 59.582031 599.867188 59.554688 C 599.820312 59.527344 599.773438 59.503906 599.730469 59.476562 C 599.679688 59.441406 599.636719 59.398438 599.589844 59.359375 C 599.550781 59.328125 599.511719 59.296875 599.480469 59.261719 C 599.4375 59.21875 599.402344 59.171875 599.367188 59.125 C 599.335938 59.085938 599.300781 59.046875 599.273438 59.003906 C 599.242188 58.957031 599.21875 58.90625 599.191406 58.855469 C 599.167969 58.808594 599.140625 58.765625 599.117188 58.714844 C 599.09375 58.65625 599.082031 58.597656 599.0625 58.539062 C 599.050781 58.492188 599.035156 58.445312 599.023438 58.398438 C 599.007812 58.324219 599.003906 58.246094 599 58.167969 C 599 58.136719 598.992188 58.101562 598.992188 58.070312 L 598.992188 58.046875 C 598.992188 58.046875 598.992188 58.042969 598.992188 58.039062 L 598.992188 54.132812 L 595.136719 54.195312 L 595.199219 58.035156 C 595.199219 58.042969 595.199219 58.046875 595.199219 58.050781 L 595.199219 58.070312 C 595.199219 58.105469 595.191406 58.136719 595.1875 58.171875 C 595.183594 58.246094 595.179688 58.324219 595.164062 58.398438 C 595.15625 58.445312 595.136719 58.492188 595.125 58.539062 C 595.109375 58.597656 595.09375 58.65625 595.070312 58.714844 C 595.050781 58.765625 595.023438 58.808594 594.996094 58.859375 C 594.972656 58.90625 594.949219 58.957031 594.917969 59.003906 C 594.886719 59.046875 594.855469 59.085938 594.820312 59.128906 C 594.785156 59.171875 594.75 59.21875 594.710938 59.261719 C 594.675781 59.296875 594.636719 59.328125 594.601562 59.359375 C 594.554688 59.398438 594.507812 59.441406 594.460938 59.472656 C 594.414062 59.503906 594.367188 59.527344 594.320312 59.554688 C 594.269531 59.582031 594.222656 59.613281 594.171875 59.636719 C 594.109375 59.660156 594.046875 59.675781 593.984375 59.695312 C 593.941406 59.707031 593.902344 59.726562 593.859375 59.738281 C 592.191406 60.105469 590.625 60.753906 589.207031 61.664062 C 589.144531 61.703125 589.078125 61.71875 589.015625 61.75 C 588.960938 61.773438 588.910156 61.800781 588.855469 61.820312 C 588.671875 61.886719 588.480469 61.933594 588.285156 61.933594 C 588.089844 61.933594 587.898438 61.886719 587.714844 61.820312 C 587.671875 61.808594 587.632812 61.792969 587.59375 61.773438 C 587.414062 61.695312 587.246094 61.589844 587.097656 61.445312 C 587.09375 61.441406 587.082031 61.4375 587.078125 61.433594 L 584.292969 58.644531 L 581.605469 61.421875 L 584.371094 64.097656 C 584.375 64.097656 584.378906 64.101562 584.378906 64.105469 L 584.390625 64.117188 C 584.394531 64.121094 584.398438 64.125 584.398438 64.128906 C 584.558594 64.289062 584.679688 64.472656 584.761719 64.671875 C 584.765625 64.683594 584.769531 64.695312 584.773438 64.710938 C 584.847656 64.902344 584.890625 65.105469 584.890625 65.3125 C 584.890625 65.328125 584.886719 65.339844 584.886719 65.351562 C 584.882812 65.554688 584.847656 65.761719 584.769531 65.957031 C 584.765625 65.96875 584.757812 65.980469 584.75 65.992188 C 584.714844 66.078125 584.675781 66.164062 584.621094 66.246094 C 583.714844 67.664062 583.066406 69.230469 582.699219 70.898438 C 582.695312 70.910156 582.6875 70.917969 582.6875 70.925781 C 582.644531 71.097656 582.578125 71.257812 582.488281 71.40625 C 582.476562 71.421875 582.472656 71.441406 582.460938 71.460938 C 582.367188 71.601562 582.253906 71.722656 582.125 71.828125 C 582.101562 71.851562 582.078125 71.871094 582.054688 71.886719 C 581.925781 71.988281 581.78125 72.066406 581.625 72.125 C 581.597656 72.136719 581.570312 72.140625 581.542969 72.152344 C 581.382812 72.203125 581.214844 72.238281 581.039062 72.238281 C 581.035156 72.238281 581.035156 72.238281 581.03125 72.238281 C 581.027344 72.238281 581.027344 72.238281 581.023438 72.238281 L 577.09375 72.238281 L 577.15625 76.09375 L 580.984375 76.03125 C 580.996094 76.03125 581.011719 76.03125 581.023438 76.03125 L 581.027344 76.03125 C 581.035156 76.03125 581.046875 76.03125 581.054688 76.03125 C 581.160156 76.035156 581.265625 76.042969 581.367188 76.0625 C 581.382812 76.066406 581.398438 76.074219 581.414062 76.078125 C 581.507812 76.097656 581.597656 76.125 581.683594 76.160156 C 581.710938 76.171875 581.734375 76.1875 581.761719 76.199219 C 581.832031 76.234375 581.902344 76.269531 581.96875 76.316406 C 582 76.335938 582.027344 76.359375 582.058594 76.382812 C 582.113281 76.425781 582.171875 76.46875 582.222656 76.519531 C 582.253906 76.550781 582.277344 76.582031 582.304688 76.613281 C 582.351562 76.664062 582.394531 76.714844 582.433594 76.769531 C 582.464844 76.8125 582.484375 76.859375 582.511719 76.902344 C 582.539062 76.953125 582.570312 77.003906 582.59375 77.058594 C 582.621094 77.117188 582.636719 77.179688 582.652344 77.238281 C 582.667969 77.285156 582.6875 77.324219 582.695312 77.371094 C 583.066406 79.039062 583.714844 80.605469 584.621094 82.023438 C 584.675781 82.105469 584.714844 82.191406 584.75 82.277344 C 584.757812 82.289062 584.765625 82.300781 584.769531 82.3125 C 584.847656 82.507812 584.882812 82.714844 584.886719 82.917969 C 584.886719 82.929688 584.890625 82.941406 584.890625 82.957031 C 584.886719 83.164062 584.847656 83.367188 584.773438 83.5625 C 584.765625 83.574219 584.765625 83.585938 584.761719 83.597656 C 584.675781 83.800781 584.554688 83.984375 584.398438 84.144531 C 584.394531 84.148438 584.394531 84.152344 584.390625 84.152344 L 584.382812 84.164062 C 584.378906 84.167969 584.375 84.167969 584.371094 84.171875 L 581.605469 86.9375 L 584.382812 89.625 L 587.058594 86.855469 C 587.0625 86.855469 587.0625 86.851562 587.0625 86.851562 L 587.078125 86.835938 C 587.082031 86.832031 587.085938 86.832031 587.089844 86.828125 C 587.25 86.671875 587.429688 86.550781 587.628906 86.46875 C 587.644531 86.464844 587.660156 86.460938 587.671875 86.457031 C 587.863281 86.382812 588.066406 86.339844 588.269531 86.339844 C 588.285156 86.339844 588.300781 86.34375 588.316406 86.34375 C 588.515625 86.347656 588.71875 86.382812 588.914062 86.460938 C 588.929688 86.464844 588.9375 86.472656 588.953125 86.476562 C 589.039062 86.515625 589.125 86.554688 589.207031 86.605469 C 590.625 87.515625 592.191406 88.164062 593.859375 88.53125 C 593.894531 88.542969 593.925781 88.554688 593.957031 88.566406 C 594.03125 88.585938 594.105469 88.605469 594.171875 88.636719 C 594.21875 88.65625 594.261719 88.683594 594.308594 88.710938 C 594.359375 88.738281 594.414062 88.761719 594.460938 88.796875 C 594.507812 88.828125 594.546875 88.867188 594.59375 88.90625 C 594.632812 88.941406 594.675781 88.972656 594.710938 89.007812 C 594.75 89.050781 594.78125 89.09375 594.816406 89.136719 C 594.851562 89.179688 594.886719 89.21875 594.917969 89.265625 C 594.945312 89.3125 594.96875 89.359375 594.992188 89.40625 C 595.019531 89.457031 595.050781 89.503906 595.070312 89.558594 C 595.09375 89.613281 595.105469 89.667969 595.121094 89.726562 C 595.136719 89.773438 595.15625 89.824219 595.164062 89.875 C 595.179688 89.945312 595.183594 90.023438 595.1875 90.097656 C 595.191406 90.132812 595.199219 90.164062 595.199219 90.203125 L 595.199219 90.222656 C 595.199219 90.226562 595.199219 90.226562 595.199219 90.230469 L 595.199219 94.136719 L 599.050781 94.074219 L 598.992188 90.234375 C 598.992188 90.230469 598.992188 90.226562 598.992188 90.21875 L 598.992188 90.203125 C 598.992188 90.167969 599 90.132812 599 90.097656 C 599.007812 90.023438 599.007812 89.945312 599.023438 89.875 C 599.035156 89.824219 599.050781 89.777344 599.066406 89.726562 C 599.082031 89.671875 599.097656 89.613281 599.117188 89.558594 C 599.140625 89.503906 599.167969 89.457031 599.195312 89.40625 C 599.21875 89.359375 599.242188 89.3125 599.269531 89.265625 C 599.300781 89.222656 599.335938 89.179688 599.371094 89.136719 C 599.40625 89.09375 599.4375 89.050781 599.476562 89.007812 C 599.515625 88.972656 599.554688 88.941406 599.597656 88.90625 C 599.640625 88.871094 599.683594 88.828125 599.730469 88.796875 C 599.777344 88.765625 599.828125 88.738281 599.882812 88.710938 C 599.925781 88.683594 599.96875 88.65625 600.019531 88.636719 C 600.085938 88.605469 600.15625 88.585938 600.230469 88.566406 C 600.265625 88.554688 600.296875 88.542969 600.332031 88.53125 C 602 88.164062 603.566406 87.515625 604.980469 86.605469 C 605.0625 86.554688 605.152344 86.515625 605.238281 86.476562 C 605.25 86.472656 605.261719 86.464844 605.273438 86.460938 C 605.46875 86.382812 605.671875 86.34375 605.875 86.34375 C 605.890625 86.34375 605.902344 86.339844 605.917969 86.339844 C 606.125 86.339844 606.324219 86.382812 606.519531 86.457031 C 606.53125 86.460938 606.542969 86.464844 606.558594 86.46875 C 606.757812 86.550781 606.941406 86.671875 607.101562 86.832031 C 607.105469 86.832031 607.109375 86.835938 607.113281 86.835938 L 607.125 86.851562 C 607.125 86.851562 607.128906 86.851562 607.128906 86.855469 L 609.898438 89.625 L 612.582031 86.847656 L 609.820312 84.175781 C 609.816406 84.171875 609.8125 84.167969 609.804688 84.160156 L 609.796875 84.152344 C 609.792969 84.152344 609.792969 84.148438 609.792969 84.144531 C 609.632812 83.984375 609.511719 83.800781 609.429688 83.597656 C 609.425781 83.585938 609.421875 83.574219 609.417969 83.558594 C 609.34375 83.367188 609.300781 83.164062 609.300781 82.957031 C 609.300781 82.945312 609.300781 82.929688 609.300781 82.917969 C 609.304688 82.714844 609.339844 82.507812 609.417969 82.3125 C 609.425781 82.300781 609.433594 82.289062 609.4375 82.277344 C 609.476562 82.191406 609.515625 82.105469 609.566406 82.023438 C 610.476562 80.605469 611.125 79.039062 611.492188 77.371094 C 611.5 77.332031 611.519531 77.296875 611.53125 77.257812 C 611.550781 77.191406 611.566406 77.121094 611.597656 77.054688 C 611.613281 77.011719 611.640625 76.976562 611.664062 76.933594 C 611.691406 76.878906 611.722656 76.820312 611.757812 76.765625 C 611.785156 76.726562 611.820312 76.695312 611.847656 76.65625 C 611.890625 76.609375 611.925781 76.558594 611.972656 76.515625 C 612.003906 76.484375 612.039062 76.460938 612.074219 76.433594 C 612.125 76.390625 612.175781 76.34375 612.230469 76.308594 C 612.265625 76.285156 612.300781 76.269531 612.339844 76.25 C 612.398438 76.21875 612.457031 76.183594 612.519531 76.15625 C 612.5625 76.140625 612.609375 76.128906 612.65625 76.117188 C 612.714844 76.097656 612.773438 76.074219 612.835938 76.0625 C 612.898438 76.050781 612.964844 76.050781 613.027344 76.042969 C 613.074219 76.039062 613.117188 76.03125 613.160156 76.03125 L 617.097656 76.03125 L 617.035156 72.175781 Z M 597.09375 85.300781 C 590.9375 85.300781 585.929688 80.292969 585.929688 74.136719 C 585.929688 67.980469 590.9375 62.972656 597.09375 62.972656 C 603.25 62.972656 608.257812 67.980469 608.257812 74.136719 C 608.257812 80.292969 603.25 85.300781 597.09375 85.300781 Z M 597.09375 85.300781 " fill-opacity="1" fill-rule="nonzero"/><g fill="#ffffff" fill-opacity="1"><g transform="translate(526.689502, 129.611236)"><g><path d="M 14.921875 -4.5625 C 14.921875 -3.039062 14.320312 -1.859375 13.125 -1.015625 C 11.9375 -0.179688 10.257812 0.234375 8.09375 0.234375 C 4.0625 0.234375 1.726562 -1.164062 1.09375 -3.96875 L 3.265625 -4.40625 C 3.515625 -3.40625 4.046875 -2.671875 4.859375 -2.203125 C 5.671875 -1.742188 6.773438 -1.515625 8.171875 -1.515625 C 9.617188 -1.515625 10.734375 -1.757812 11.515625 -2.25 C 12.304688 -2.75 12.703125 -3.484375 12.703125 -4.453125 C 12.703125 -4.984375 12.578125 -5.414062 12.328125 -5.75 C 12.085938 -6.09375 11.742188 -6.375 11.296875 -6.59375 C 10.847656 -6.8125 10.316406 -6.992188 9.703125 -7.140625 C 9.085938 -7.296875 8.40625 -7.457031 7.65625 -7.625 C 6.34375 -7.914062 5.347656 -8.203125 4.671875 -8.484375 C 3.992188 -8.773438 3.457031 -9.097656 3.0625 -9.453125 C 2.675781 -9.816406 2.378906 -10.234375 2.171875 -10.703125 C 1.960938 -11.179688 1.859375 -11.734375 1.859375 -12.359375 C 1.859375 -13.773438 2.398438 -14.863281 3.484375 -15.625 C 4.566406 -16.394531 6.117188 -16.78125 8.140625 -16.78125 C 10.015625 -16.78125 11.445312 -16.492188 12.4375 -15.921875 C 13.4375 -15.347656 14.132812 -14.367188 14.53125 -12.984375 L 12.328125 -12.59375 C 12.085938 -13.46875 11.625 -14.101562 10.9375 -14.5 C 10.257812 -14.894531 9.320312 -15.09375 8.125 -15.09375 C 6.800781 -15.09375 5.789062 -14.875 5.09375 -14.4375 C 4.394531 -14 4.046875 -13.34375 4.046875 -12.46875 C 4.046875 -11.957031 4.179688 -11.535156 4.453125 -11.203125 C 4.722656 -10.878906 5.113281 -10.597656 5.625 -10.359375 C 6.132812 -10.128906 7.144531 -9.847656 8.65625 -9.515625 C 9.164062 -9.398438 9.671875 -9.28125 10.171875 -9.15625 C 10.679688 -9.03125 11.164062 -8.882812 11.625 -8.71875 C 12.09375 -8.550781 12.523438 -8.351562 12.921875 -8.125 C 13.328125 -7.90625 13.675781 -7.628906 13.96875 -7.296875 C 14.269531 -6.972656 14.503906 -6.585938 14.671875 -6.140625 C 14.835938 -5.691406 14.921875 -5.164062 14.921875 -4.5625 Z M 14.921875 -4.5625 "/></g></g></g><g fill="#ffffff" fill-opacity="1"><g transform="translate(542.711098, 129.611236)"><g><path d="M 3.234375 -5.90625 C 3.234375 -4.445312 3.535156 -3.320312 4.140625 -2.53125 C 4.742188 -1.738281 5.625 -1.34375 6.78125 -1.34375 C 7.695312 -1.34375 8.429688 -1.523438 8.984375 -1.890625 C 9.535156 -2.265625 9.910156 -2.734375 10.109375 -3.296875 L 11.953125 -2.765625 C 11.191406 -0.765625 9.46875 0.234375 6.78125 0.234375 C 4.90625 0.234375 3.472656 -0.320312 2.484375 -1.4375 C 1.503906 -2.5625 1.015625 -4.226562 1.015625 -6.4375 C 1.015625 -8.53125 1.503906 -10.132812 2.484375 -11.25 C 3.472656 -12.375 4.878906 -12.9375 6.703125 -12.9375 C 10.429688 -12.9375 12.296875 -10.6875 12.296875 -6.1875 L 12.296875 -5.90625 Z M 10.109375 -7.515625 C 9.992188 -8.859375 9.65625 -9.835938 9.09375 -10.453125 C 8.53125 -11.066406 7.722656 -11.375 6.671875 -11.375 C 5.640625 -11.375 4.820312 -11.03125 4.21875 -10.34375 C 3.625 -9.65625 3.304688 -8.710938 3.265625 -7.515625 Z M 10.109375 -7.515625 "/></g></g></g><g fill="#ffffff" fill-opacity="1"><g transform="translate(556.070247, 129.611236)"><g><path d="M 1.671875 0 L 1.671875 -9.734375 C 1.671875 -10.628906 1.644531 -11.617188 1.59375 -12.703125 L 3.59375 -12.703125 C 3.65625 -11.253906 3.6875 -10.390625 3.6875 -10.109375 L 3.734375 -10.109375 C 4.066406 -11.191406 4.453125 -11.929688 4.890625 -12.328125 C 5.328125 -12.734375 5.945312 -12.9375 6.75 -12.9375 C 7.03125 -12.9375 7.316406 -12.894531 7.609375 -12.8125 L 7.609375 -10.875 C 7.328125 -10.957031 6.953125 -11 6.484375 -11 C 5.597656 -11 4.925781 -10.617188 4.46875 -9.859375 C 4.007812 -9.109375 3.78125 -8.03125 3.78125 -6.625 L 3.78125 0 Z M 1.671875 0 "/></g></g></g><g fill="#ffffff" fill-opacity="1"><g transform="translate(564.069316, 129.611236)"><g><path d="M 7.1875 0 L 4.6875 0 L 0.078125 -12.703125 L 2.328125 -12.703125 L 5.125 -4.4375 C 5.226562 -4.125 5.5 -3.195312 5.9375 -1.65625 L 6.34375 -3.03125 L 6.8125 -4.40625 L 9.6875 -12.703125 L 11.9375 -12.703125 Z M 7.1875 0 "/></g></g></g><g fill="#ffffff" fill-opacity="1"><g transform="translate(576.079649, 129.611236)"><g><path d="M 1.609375 -15.390625 L 1.609375 -17.40625 L 3.71875 -17.40625 L 3.71875 -15.390625 Z M 1.609375 0 L 1.609375 -12.703125 L 3.71875 -12.703125 L 3.71875 0 Z M 1.609375 0 "/></g></g></g><g fill="#ffffff" fill-opacity="1"><g transform="translate(581.416271, 129.611236)"><g><path d="M 3.234375 -6.40625 C 3.234375 -4.71875 3.5 -3.46875 4.03125 -2.65625 C 4.5625 -1.84375 5.363281 -1.4375 6.4375 -1.4375 C 7.1875 -1.4375 7.8125 -1.640625 8.3125 -2.046875 C 8.820312 -2.453125 9.132812 -3.078125 9.25 -3.921875 L 11.375 -3.78125 C 11.21875 -2.5625 10.695312 -1.585938 9.8125 -0.859375 C 8.9375 -0.128906 7.828125 0.234375 6.484375 0.234375 C 4.710938 0.234375 3.359375 -0.328125 2.421875 -1.453125 C 1.484375 -2.578125 1.015625 -4.210938 1.015625 -6.359375 C 1.015625 -8.492188 1.484375 -10.125 2.421875 -11.25 C 3.367188 -12.375 4.71875 -12.9375 6.46875 -12.9375 C 7.757812 -12.9375 8.832031 -12.597656 9.6875 -11.921875 C 10.550781 -11.242188 11.09375 -10.316406 11.3125 -9.140625 L 9.140625 -8.96875 C 9.023438 -9.675781 8.742188 -10.238281 8.296875 -10.65625 C 7.859375 -11.070312 7.226562 -11.28125 6.40625 -11.28125 C 5.289062 -11.28125 4.484375 -10.90625 3.984375 -10.15625 C 3.484375 -9.414062 3.234375 -8.164062 3.234375 -6.40625 Z M 3.234375 -6.40625 "/></g></g></g><g fill="#ffffff" fill-opacity="1"><g transform="translate(593.426604, 129.611236)"><g><path d="M 1.609375 -15.390625 L 1.609375 -17.40625 L 3.71875 -17.40625 L 3.71875 -15.390625 Z M 1.609375 0 L 1.609375 -12.703125 L 3.71875 -12.703125 L 3.71875 0 Z M 1.609375 0 "/></g></g></g><g fill="#ffffff" fill-opacity="1"><g transform="translate(598.763226, 129.611236)"><g><path d="M 9.6875 0 L 9.6875 -8.046875 C 9.6875 -8.890625 9.601562 -9.539062 9.4375 -10 C 9.269531 -10.457031 9.003906 -10.785156 8.640625 -10.984375 C 8.285156 -11.191406 7.757812 -11.296875 7.0625 -11.296875 C 6.039062 -11.296875 5.238281 -10.945312 4.65625 -10.25 C 4.070312 -9.5625 3.78125 -8.597656 3.78125 -7.359375 L 3.78125 0 L 1.671875 0 L 1.671875 -9.984375 C 1.671875 -11.460938 1.644531 -12.367188 1.59375 -12.703125 L 3.59375 -12.703125 C 3.601562 -12.660156 3.609375 -12.550781 3.609375 -12.375 C 3.617188 -12.207031 3.628906 -12.007812 3.640625 -11.78125 C 3.648438 -11.5625 3.664062 -11.144531 3.6875 -10.53125 L 3.71875 -10.53125 C 4.207031 -11.40625 4.769531 -12.023438 5.40625 -12.390625 C 6.039062 -12.753906 6.832031 -12.9375 7.78125 -12.9375 C 9.175781 -12.9375 10.191406 -12.585938 10.828125 -11.890625 C 11.472656 -11.203125 11.796875 -10.054688 11.796875 -8.453125 L 11.796875 0 Z M 9.6875 0 "/></g></g></g><g fill="#ffffff" fill-opacity="1"><g transform="translate(612.122375, 129.611236)"><g><path d="M 6.4375 4.984375 C 5.050781 4.984375 3.945312 4.710938 3.125 4.171875 C 2.300781 3.628906 1.769531 2.859375 1.53125 1.859375 L 3.65625 1.546875 C 3.800781 2.128906 4.113281 2.578125 4.59375 2.890625 C 5.070312 3.210938 5.703125 3.375 6.484375 3.375 C 8.585938 3.375 9.640625 2.144531 9.640625 -0.3125 L 9.640625 -2.359375 L 9.625 -2.359375 C 9.226562 -1.546875 8.679688 -0.929688 7.984375 -0.515625 C 7.285156 -0.109375 6.46875 0.09375 5.53125 0.09375 C 3.976562 0.09375 2.835938 -0.421875 2.109375 -1.453125 C 1.378906 -2.484375 1.015625 -4.109375 1.015625 -6.328125 C 1.015625 -8.566406 1.40625 -10.21875 2.1875 -11.28125 C 2.976562 -12.351562 4.171875 -12.890625 5.765625 -12.890625 C 6.671875 -12.890625 7.453125 -12.679688 8.109375 -12.265625 C 8.773438 -11.859375 9.285156 -11.28125 9.640625 -10.53125 L 9.671875 -10.53125 C 9.671875 -10.757812 9.6875 -11.160156 9.71875 -11.734375 C 9.75 -12.316406 9.78125 -12.640625 9.8125 -12.703125 L 11.8125 -12.703125 C 11.769531 -12.273438 11.75 -11.394531 11.75 -10.0625 L 11.75 -0.359375 C 11.75 3.203125 9.976562 4.984375 6.4375 4.984375 Z M 9.640625 -6.34375 C 9.640625 -7.375 9.5 -8.265625 9.21875 -9.015625 C 8.9375 -9.765625 8.539062 -10.335938 8.03125 -10.734375 C 7.519531 -11.128906 6.941406 -11.328125 6.296875 -11.328125 C 5.210938 -11.328125 4.421875 -10.929688 3.921875 -10.140625 C 3.429688 -9.359375 3.1875 -8.09375 3.1875 -6.34375 C 3.1875 -4.613281 3.414062 -3.367188 3.875 -2.609375 C 4.34375 -1.847656 5.132812 -1.46875 6.25 -1.46875 C 6.914062 -1.46875 7.503906 -1.660156 8.015625 -2.046875 C 8.535156 -2.441406 8.9375 -3.003906 9.21875 -3.734375 C 9.5 -4.460938 9.640625 -5.332031 9.640625 -6.34375 Z M 9.640625 -6.34375 "/></g></g></g><g clip-path="url(#7ac36702c8)"><path fill="#8ff3ad" d="M 838.4375 46.480469 L 831 46.480469 C 828.902344 46.480469 827.191406 48.175781 827.191406 50.28125 L 827.191406 60.5625 L 823.125 60.5625 L 823.523438 35.484375 C 823.535156 34.929688 823.082031 34.472656 822.523438 34.472656 L 793.410156 34.472656 C 793.421875 34.40625 793.433594 34.335938 793.433594 34.257812 L 793.433594 25.601562 L 802.023438 25.601562 C 803.996094 25.601562 805.582031 24.011719 805.582031 22.054688 L 805.582031 14.878906 C 805.582031 12.910156 803.984375 11.332031 802.023438 11.332031 L 769.578125 11.332031 C 767.605469 11.332031 766.023438 12.921875 766.023438 14.878906 L 766.023438 22.066406 C 766.023438 24.035156 767.617188 25.613281 769.578125 25.613281 L 778.394531 25.613281 L 778.394531 34.269531 C 778.394531 34.335938 778.40625 34.417969 778.417969 34.484375 L 764.585938 34.484375 C 764.300781 34.484375 764.027344 34.609375 763.835938 34.824219 L 750.527344 49.996094 C 750.34375 50.210938 750.082031 50.324219 749.796875 50.335938 L 737.082031 50.632812 C 736.523438 50.632812 736.082031 51.089844 736.082031 51.632812 L 736.160156 63.359375 L 730.53125 63.359375 L 730.53125 52.507812 C 730.53125 50.417969 728.835938 48.710938 726.726562 48.710938 L 719.289062 48.710938 C 717.179688 48.722656 715.480469 50.417969 715.480469 52.507812 L 715.480469 90.015625 C 715.480469 92.109375 717.179688 93.8125 719.289062 93.8125 L 726.726562 93.8125 C 728.824219 93.8125 730.53125 92.117188 730.53125 90.015625 L 730.53125 78.382812 L 736.261719 78.382812 L 736.332031 87.753906 C 736.332031 88.296875 736.789062 88.742188 737.335938 88.742188 L 749.503906 88.742188 C 749.832031 88.742188 750.152344 88.910156 750.332031 89.183594 L 763.003906 107.949219 C 763.1875 108.222656 763.492188 108.382812 763.824219 108.394531 L 798.628906 108.789062 C 798.878906 108.789062 799.121094 108.699219 799.3125 108.527344 L 822.398438 87.753906 C 822.601562 87.570312 822.726562 87.308594 822.726562 87.023438 L 822.910156 75.574219 L 827.203125 75.574219 L 827.203125 87.773438 C 827.203125 89.867188 828.902344 91.574219 831.011719 91.574219 L 838.449219 91.574219 C 840.546875 91.574219 842.253906 89.878906 842.699219 87.773438 L 842.699219 50.28125 C 842.242188 48.1875 840.535156 46.480469 838.4375 46.480469 Z M 838.4375 46.480469 " fill-opacity="1" fill-rule="nonzero"/></g><g clip-path="url(#af4b158765)"><path fill="#231f20" d="M 784.730469 11.195312 L 785.335938 11.195312 L 785.335938 108.996094 L 784.730469 108.996094 Z M 784.730469 11.195312 " fill-opacity="1" fill-rule="nonzero"/></g><path fill="#231f20" d="M 814.648438 57.832031 C 814.558594 57.480469 814.160156 56.910156 813.898438 56.625 C 813.785156 56.5 813.417969 56.21875 813.417969 56.21875 L 812.53125 55.761719 L 812.425781 56.136719 L 813.429688 57.46875 L 813.898438 58.523438 C 813.898438 58.523438 814.058594 58.785156 813.726562 59.058594 L 813.429688 59.320312 L 813.53125 59.539062 L 814.570312 59.296875 L 814.898438 59.152344 C 814.878906 59.171875 814.730469 58.160156 814.648438 57.832031 Z M 814.648438 57.832031 " fill-opacity="1" fill-rule="nonzero"/><path fill="#231f20" d="M 790.871094 80.929688 L 812.964844 80.929688 L 812.964844 82.257812 L 790.871094 82.257812 Z M 790.871094 80.929688 " fill-opacity="1" fill-rule="nonzero"/><path fill="#231f20" d="M 810.273438 63.277344 C 810.34375 63.222656 810.695312 63.097656 810.921875 63.210938 C 811.175781 63.335938 811.21875 63.722656 811.21875 64.03125 C 811.21875 64.359375 811.1875 64.824219 811.140625 65.324219 C 811.039062 66.621094 810.914062 68.089844 811.242188 68.953125 C 811.34375 69.214844 811.574219 69.476562 811.878906 69.679688 C 812.199219 69.886719 812.574219 70.011719 812.941406 70.011719 C 813.339844 70.011719 813.691406 69.816406 813.976562 69.441406 C 814.195312 69.160156 814.332031 68.828125 814.457031 68.53125 C 814.84375 67.589844 814.957031 65.691406 814.808594 62.902344 C 814.695312 60.855469 814.476562 59.046875 814.476562 59.039062 L 813.703125 59.128906 C 813.703125 59.152344 813.921875 60.925781 814.035156 62.949219 C 814.203125 66.269531 813.964844 67.65625 813.738281 68.238281 C 813.542969 68.714844 813.304688 69.238281 812.953125 69.238281 C 812.460938 69.238281 812.050781 68.875 811.984375 68.691406 C 811.722656 67.988281 811.835938 66.554688 811.925781 65.40625 C 811.972656 64.894531 812.007812 64.40625 812.007812 64.050781 C 812.007812 63.644531 811.925781 63.289062 811.789062 63.027344 C 811.652344 62.777344 811.4375 62.585938 811.175781 62.484375 C 810.855469 62.359375 810.523438 62.390625 810.308594 62.449219 Z M 810.273438 63.277344 " fill-opacity="1" fill-rule="nonzero"/><path fill="#231f20" d="M 813.476562 59.296875 C 813.382812 59.183594 813.078125 58.777344 813.054688 58.535156 C 813.042969 58.398438 813.121094 58.242188 813.304688 58.011719 C 813.417969 57.867188 813.53125 57.753906 813.542969 57.742188 L 813.785156 57.980469 C 813.785156 57.980469 813.679688 58.082031 813.578125 58.21875 C 813.40625 58.433594 813.394531 58.515625 813.394531 58.523438 C 813.40625 58.617188 813.578125 58.902344 813.738281 59.105469 Z M 813.476562 59.296875 " fill-opacity="1" fill-rule="nonzero"/><path fill="#231f20" d="M 810.570312 79.949219 C 810.570312 80.484375 810.136719 80.929688 809.589844 80.929688 L 793.96875 80.929688 C 793.433594 80.929688 792.992188 80.496094 792.992188 79.949219 L 792.992188 51.167969 C 792.992188 50.632812 793.421875 50.191406 793.96875 50.191406 L 809.589844 50.191406 C 810.125 50.191406 810.570312 50.621094 810.570312 51.167969 Z M 810.570312 79.949219 " fill-opacity="1" fill-rule="nonzero"/><path fill="#ffffff" d="M 795.132812 52.144531 L 808.441406 52.144531 L 808.441406 60.46875 L 795.132812 60.46875 Z M 795.132812 52.144531 " fill-opacity="1" fill-rule="nonzero"/><path fill="#231f20" d="M 759.105469 59.789062 L 759.105469 56.613281 C 759.105469 56.183594 759.472656 55.832031 759.925781 55.832031 C 760.382812 55.832031 760.746094 56.183594 760.746094 56.613281 L 760.746094 59.730469 L 765.101562 59.730469 L 765.101562 56.613281 C 765.101562 56.183594 765.464844 55.832031 765.921875 55.832031 C 766.375 55.832031 766.742188 56.183594 766.742188 56.613281 L 766.742188 59.753906 C 767.242188 59.820312 767.699219 60.070312 768.027344 60.425781 C 768.371094 60.789062 768.550781 61.265625 768.550781 61.753906 L 768.550781 64.621094 C 768.550781 64.769531 768.539062 64.90625 768.507812 65.054688 C 768.507812 66.417969 767.9375 67.703125 766.898438 68.667969 C 766.066406 69.453125 765.007812 69.941406 763.847656 70.113281 L 763.847656 76.640625 C 763.847656 76.699219 763.835938 76.753906 763.824219 76.800781 C 763.8125 80.722656 764.792969 83.226562 766.742188 84.25 C 769.304688 85.601562 773.234375 84.292969 776.082031 82.964844 C 779.285156 81.472656 781.859375 79.597656 781.90625 79.574219 C 782.269531 79.3125 782.78125 79.394531 783.042969 79.757812 C 783.304688 80.121094 783.226562 80.632812 782.863281 80.894531 C 782.746094 80.972656 780.140625 82.875 776.800781 84.441406 C 774.808594 85.375 772.972656 85.988281 771.34375 86.273438 C 770.636719 86.398438 769.976562 86.457031 769.339844 86.457031 C 768.0625 86.457031 766.933594 86.207031 765.976562 85.695312 C 764.691406 85.011719 763.710938 83.886719 763.082031 82.351562 C 762.445312 80.78125 762.136719 78.746094 762.195312 76.289062 L 762.195312 70.101562 C 761.03125 69.941406 759.972656 69.441406 759.140625 68.65625 C 758.105469 67.691406 757.535156 66.40625 757.535156 65.042969 C 757.5 64.90625 757.488281 64.757812 757.488281 64.609375 L 757.488281 61.742188 C 757.488281 60.824219 758.148438 60.015625 759.105469 59.789062 Z M 759.105469 59.789062 " fill-opacity="1" fill-rule="nonzero"/><g fill="#ffffff" fill-opacity="1"><g transform="translate(715.491234, 134.092241)"><g><path d="M 1.96875 0 L 1.96875 -16.453125 L 14.4375 -16.453125 L 14.4375 -14.625 L 4.1875 -14.625 L 4.1875 -9.34375 L 13.734375 -9.34375 L 13.734375 -7.546875 L 4.1875 -7.546875 L 4.1875 -1.828125 L 14.921875 -1.828125 L 14.921875 0 Z M 1.96875 0 "/></g></g></g><g fill="#ffffff" fill-opacity="1"><g transform="translate(731.435342, 134.092241)"><g><path d="M 9.125 0 L 6.8125 0 L 0.109375 -16.453125 L 2.453125 -16.453125 L 7 -4.875 L 7.984375 -1.96875 L 8.96875 -4.875 L 13.5 -16.453125 L 15.84375 -16.453125 Z M 9.125 0 "/></g></g></g><g fill="#ffffff" fill-opacity="1"><g transform="translate(747.379451, 134.092241)"><g/></g></g><g fill="#ffffff" fill-opacity="1"><g transform="translate(754.020884, 134.092241)"><g><path d="M 9.25 -14.875 C 7.425781 -14.875 6.007812 -14.285156 5 -13.109375 C 3.988281 -11.941406 3.484375 -10.335938 3.484375 -8.296875 C 3.484375 -6.285156 4.007812 -4.664062 5.0625 -3.4375 C 6.113281 -2.207031 7.539062 -1.59375 9.34375 -1.59375 C 11.644531 -1.59375 13.375 -2.734375 14.53125 -5.015625 L 16.359375 -4.109375 C 15.679688 -2.691406 14.726562 -1.613281 13.5 -0.875 C 12.269531 -0.132812 10.847656 0.234375 9.234375 0.234375 C 7.578125 0.234375 6.140625 -0.109375 4.921875 -0.796875 C 3.710938 -1.484375 2.789062 -2.46875 2.15625 -3.75 C 1.53125 -5.03125 1.21875 -6.546875 1.21875 -8.296875 C 1.21875 -10.921875 1.925781 -12.972656 3.34375 -14.453125 C 4.757812 -15.941406 6.71875 -16.6875 9.21875 -16.6875 C 10.96875 -16.6875 12.429688 -16.34375 13.609375 -15.65625 C 14.785156 -14.976562 15.648438 -13.96875 16.203125 -12.625 L 14.09375 -11.921875 C 13.707031 -12.878906 13.09375 -13.609375 12.25 -14.109375 C 11.40625 -14.617188 10.40625 -14.875 9.25 -14.875 Z M 9.25 -14.875 "/></g></g></g><g fill="#ffffff" fill-opacity="1"><g transform="translate(771.283941, 134.092241)"><g><path d="M 12.296875 -6.328125 C 12.296875 -4.117188 11.804688 -2.472656 10.828125 -1.390625 C 9.859375 -0.304688 8.445312 0.234375 6.59375 0.234375 C 4.75 0.234375 3.351562 -0.328125 2.40625 -1.453125 C 1.46875 -2.578125 1 -4.203125 1 -6.328125 C 1 -10.679688 2.890625 -12.859375 6.671875 -12.859375 C 8.597656 -12.859375 10.015625 -12.328125 10.921875 -11.265625 C 11.835938 -10.203125 12.296875 -8.554688 12.296875 -6.328125 Z M 10.078125 -6.328125 C 10.078125 -8.066406 9.816406 -9.332031 9.296875 -10.125 C 8.785156 -10.914062 7.921875 -11.3125 6.703125 -11.3125 C 5.472656 -11.3125 4.582031 -10.90625 4.03125 -10.09375 C 3.476562 -9.289062 3.203125 -8.035156 3.203125 -6.328125 C 3.203125 -4.660156 3.472656 -3.40625 4.015625 -2.5625 C 4.554688 -1.726562 5.410156 -1.3125 6.578125 -1.3125 C 7.835938 -1.3125 8.734375 -1.71875 9.265625 -2.53125 C 9.804688 -3.34375 10.078125 -4.609375 10.078125 -6.328125 Z M 10.078125 -6.328125 "/></g></g></g><g fill="#ffffff" fill-opacity="1"><g transform="translate(784.57848, 134.092241)"><g><path d="M 9.625 0 L 9.625 -8 C 9.625 -8.832031 9.539062 -9.476562 9.375 -9.9375 C 9.21875 -10.40625 8.957031 -10.738281 8.59375 -10.9375 C 8.238281 -11.132812 7.71875 -11.234375 7.03125 -11.234375 C 6.019531 -11.234375 5.222656 -10.882812 4.640625 -10.1875 C 4.054688 -9.5 3.765625 -8.539062 3.765625 -7.3125 L 3.765625 0 L 1.65625 0 L 1.65625 -9.9375 C 1.65625 -11.40625 1.632812 -12.300781 1.59375 -12.625 L 3.578125 -12.625 C 3.578125 -12.59375 3.582031 -12.488281 3.59375 -12.3125 C 3.601562 -12.144531 3.613281 -11.945312 3.625 -11.71875 C 3.632812 -11.5 3.648438 -11.082031 3.671875 -10.46875 L 3.703125 -10.46875 C 4.179688 -11.34375 4.738281 -11.957031 5.375 -12.3125 C 6.007812 -12.675781 6.796875 -12.859375 7.734375 -12.859375 C 9.117188 -12.859375 10.132812 -12.515625 10.78125 -11.828125 C 11.425781 -11.140625 11.75 -10.003906 11.75 -8.421875 L 11.75 0 Z M 9.625 0 "/></g></g></g><g fill="#ffffff" fill-opacity="1"><g transform="translate(797.873018, 134.092241)"><g><path d="M 7.15625 0 L 4.671875 0 L 0.078125 -12.625 L 2.328125 -12.625 L 5.09375 -4.40625 C 5.195312 -4.101562 5.46875 -3.179688 5.90625 -1.640625 L 6.3125 -3.015625 L 6.765625 -4.390625 L 9.640625 -12.625 L 11.875 -12.625 Z M 7.15625 0 "/></g></g></g><g fill="#ffffff" fill-opacity="1"><g transform="translate(809.825263, 134.092241)"><g><path d="M 3.21875 -5.875 C 3.21875 -4.425781 3.515625 -3.304688 4.109375 -2.515625 C 4.710938 -1.734375 5.59375 -1.34375 6.75 -1.34375 C 7.65625 -1.34375 8.382812 -1.523438 8.9375 -1.890625 C 9.488281 -2.253906 9.859375 -2.71875 10.046875 -3.28125 L 11.890625 -2.75 C 11.140625 -0.757812 9.425781 0.234375 6.75 0.234375 C 4.882812 0.234375 3.460938 -0.320312 2.484375 -1.4375 C 1.503906 -2.550781 1.015625 -4.203125 1.015625 -6.390625 C 1.015625 -8.484375 1.503906 -10.082031 2.484375 -11.1875 C 3.460938 -12.300781 4.859375 -12.859375 6.671875 -12.859375 C 10.378906 -12.859375 12.234375 -10.625 12.234375 -6.15625 L 12.234375 -5.875 Z M 10.0625 -7.484375 C 9.945312 -8.816406 9.609375 -9.785156 9.046875 -10.390625 C 8.484375 -11.003906 7.675781 -11.3125 6.625 -11.3125 C 5.601562 -11.3125 4.796875 -10.96875 4.203125 -10.28125 C 3.609375 -9.601562 3.289062 -8.671875 3.25 -7.484375 Z M 10.0625 -7.484375 "/></g></g></g><g fill="#ffffff" fill-opacity="1"><g transform="translate(823.119802, 134.092241)"><g><path d="M 1.65625 0 L 1.65625 -9.6875 C 1.65625 -10.570312 1.632812 -11.550781 1.59375 -12.625 L 3.578125 -12.625 C 3.640625 -11.195312 3.671875 -10.335938 3.671875 -10.046875 L 3.71875 -10.046875 C 4.050781 -11.128906 4.429688 -11.867188 4.859375 -12.265625 C 5.296875 -12.660156 5.914062 -12.859375 6.71875 -12.859375 C 6.988281 -12.859375 7.269531 -12.820312 7.5625 -12.75 L 7.5625 -10.828125 C 7.28125 -10.898438 6.90625 -10.9375 6.4375 -10.9375 C 5.570312 -10.9375 4.910156 -10.5625 4.453125 -9.8125 C 3.992188 -9.0625 3.765625 -7.984375 3.765625 -6.578125 L 3.765625 0 Z M 1.65625 0 "/></g></g></g><g fill="#ffffff" fill-opacity="1"><g transform="translate(831.080184, 134.092241)"><g><path d="M 11.09375 -3.484375 C 11.09375 -2.296875 10.640625 -1.378906 9.734375 -0.734375 C 8.835938 -0.0859375 7.582031 0.234375 5.96875 0.234375 C 4.394531 0.234375 3.179688 -0.0195312 2.328125 -0.53125 C 1.472656 -1.050781 0.921875 -1.863281 0.671875 -2.96875 L 2.515625 -3.328125 C 2.703125 -2.648438 3.070312 -2.148438 3.625 -1.828125 C 4.1875 -1.515625 4.96875 -1.359375 5.96875 -1.359375 C 7.03125 -1.359375 7.804688 -1.519531 8.296875 -1.84375 C 8.796875 -2.175781 9.046875 -2.671875 9.046875 -3.328125 C 9.046875 -3.828125 8.875 -4.226562 8.53125 -4.53125 C 8.1875 -4.84375 7.632812 -5.101562 6.875 -5.3125 L 5.375 -5.703125 C 4.164062 -6.015625 3.304688 -6.320312 2.796875 -6.625 C 2.285156 -6.925781 1.882812 -7.289062 1.59375 -7.71875 C 1.3125 -8.144531 1.171875 -8.671875 1.171875 -9.296875 C 1.171875 -10.441406 1.578125 -11.316406 2.390625 -11.921875 C 3.210938 -12.523438 4.410156 -12.828125 5.984375 -12.828125 C 7.378906 -12.828125 8.488281 -12.582031 9.3125 -12.09375 C 10.132812 -11.601562 10.65625 -10.816406 10.875 -9.734375 L 8.96875 -9.5 C 8.851562 -10.0625 8.539062 -10.488281 8.03125 -10.78125 C 7.519531 -11.082031 6.835938 -11.234375 5.984375 -11.234375 C 5.035156 -11.234375 4.332031 -11.085938 3.875 -10.796875 C 3.425781 -10.515625 3.203125 -10.082031 3.203125 -9.5 C 3.203125 -9.144531 3.296875 -8.847656 3.484375 -8.609375 C 3.671875 -8.378906 3.945312 -8.179688 4.3125 -8.015625 C 4.6875 -7.859375 5.457031 -7.632812 6.625 -7.34375 C 7.738281 -7.0625 8.539062 -6.800781 9.03125 -6.5625 C 9.519531 -6.320312 9.90625 -6.054688 10.1875 -5.765625 C 10.476562 -5.484375 10.703125 -5.15625 10.859375 -4.78125 C 11.015625 -4.40625 11.09375 -3.972656 11.09375 -3.484375 Z M 11.09375 -3.484375 "/></g></g></g><g fill="#ffffff" fill-opacity="1"><g transform="translate(843.032429, 134.092241)"><g><path d="M 1.59375 -15.3125 L 1.59375 -17.328125 L 3.703125 -17.328125 L 3.703125 -15.3125 Z M 1.59375 0 L 1.59375 -12.625 L 3.703125 -12.625 L 3.703125 0 Z M 1.59375 0 "/></g></g></g><g fill="#ffffff" fill-opacity="1"><g transform="translate(848.343241, 134.092241)"><g><path d="M 12.296875 -6.328125 C 12.296875 -4.117188 11.804688 -2.472656 10.828125 -1.390625 C 9.859375 -0.304688 8.445312 0.234375 6.59375 0.234375 C 4.75 0.234375 3.351562 -0.328125 2.40625 -1.453125 C 1.46875 -2.578125 1 -4.203125 1 -6.328125 C 1 -10.679688 2.890625 -12.859375 6.671875 -12.859375 C 8.597656 -12.859375 10.015625 -12.328125 10.921875 -11.265625 C 11.835938 -10.203125 12.296875 -8.554688 12.296875 -6.328125 Z M 10.078125 -6.328125 C 10.078125 -8.066406 9.816406 -9.332031 9.296875 -10.125 C 8.785156 -10.914062 7.921875 -11.3125 6.703125 -11.3125 C 5.472656 -11.3125 4.582031 -10.90625 4.03125 -10.09375 C 3.476562 -9.289062 3.203125 -8.035156 3.203125 -6.328125 C 3.203125 -4.660156 3.472656 -3.40625 4.015625 -2.5625 C 4.554688 -1.726562 5.410156 -1.3125 6.578125 -1.3125 C 7.835938 -1.3125 8.734375 -1.71875 9.265625 -2.53125 C 9.804688 -3.34375 10.078125 -4.609375 10.078125 -6.328125 Z M 10.078125 -6.328125 "/></g></g></g><g fill="#ffffff" fill-opacity="1"><g transform="translate(861.63778, 134.092241)"><g><path d="M 9.625 0 L 9.625 -8 C 9.625 -8.832031 9.539062 -9.476562 9.375 -9.9375 C 9.21875 -10.40625 8.957031 -10.738281 8.59375 -10.9375 C 8.238281 -11.132812 7.71875 -11.234375 7.03125 -11.234375 C 6.019531 -11.234375 5.222656 -10.882812 4.640625 -10.1875 C 4.054688 -9.5 3.765625 -8.539062 3.765625 -7.3125 L 3.765625 0 L 1.65625 0 L 1.65625 -9.9375 C 1.65625 -11.40625 1.632812 -12.300781 1.59375 -12.625 L 3.578125 -12.625 C 3.578125 -12.59375 3.582031 -12.488281 3.59375 -12.3125 C 3.601562 -12.144531 3.613281 -11.945312 3.625 -11.71875 C 3.632812 -11.5 3.648438 -11.082031 3.671875 -10.46875 L 3.703125 -10.46875 C 4.179688 -11.34375 4.738281 -11.957031 5.375 -12.3125 C 6.007812 -12.675781 6.796875 -12.859375 7.734375 -12.859375 C 9.117188 -12.859375 10.132812 -12.515625 10.78125 -11.828125 C 11.425781 -11.140625 11.75 -10.003906 11.75 -8.421875 L 11.75 0 Z M 9.625 0 "/></g></g></g><path fill="#231f20" d="M 995.785156 16.195312 L 1179.671875 16.195312 L 1179.671875 56.9375 L 995.785156 56.9375 Z M 995.785156 16.195312 " fill-opacity="1" fill-rule="nonzero"/><path fill="#8ff3ad" d="M 1022.761719 25.929688 L 1024.496094 31.332031 C 1024.695312 32.066406 1025.363281 32.53125 1026.097656 32.53125 L 1031.773438 32.53125 C 1032.710938 32.53125 1033.511719 33.332031 1033.511719 34.265625 C 1033.511719 34.800781 1033.242188 35.332031 1032.777344 35.667969 L 1028.167969 39 C 1027.566406 39.46875 1027.300781 40.199219 1027.566406 40.933594 L 1029.304688 46.335938 C 1029.570312 47.203125 1029.105469 48.203125 1028.234375 48.46875 C 1027.703125 48.667969 1027.167969 48.535156 1026.699219 48.203125 L 1022.09375 44.867188 C 1021.492188 44.46875 1020.691406 44.46875 1020.089844 44.867188 L 1015.484375 48.203125 C 1014.75 48.738281 1013.679688 48.601562 1013.078125 47.871094 C 1012.746094 47.402344 1012.679688 46.871094 1012.8125 46.335938 L 1014.546875 40.933594 C 1014.75 40.199219 1014.546875 39.46875 1013.945312 39 L 1009.339844 35.667969 C 1008.605469 35.132812 1008.40625 34.066406 1008.9375 33.265625 C 1009.273438 32.796875 1009.808594 32.53125 1010.339844 32.53125 L 1016.015625 32.53125 C 1016.75 32.53125 1017.417969 32.066406 1017.621094 31.332031 L 1019.355469 25.929688 C 1019.621094 25.0625 1020.625 24.53125 1021.492188 24.863281 C 1022.226562 24.996094 1022.628906 25.394531 1022.761719 25.929688 Z M 1022.761719 25.929688 " fill-opacity="1" fill-rule="nonzero"/><path fill="#8ff3ad" d="M 1056.078125 25.929688 L 1057.816406 31.332031 C 1058.015625 32.066406 1058.683594 32.53125 1059.417969 32.53125 L 1065.09375 32.53125 C 1066.027344 32.53125 1066.828125 33.332031 1066.828125 34.265625 C 1066.828125 34.800781 1066.5625 35.332031 1066.09375 35.667969 L 1061.488281 39 C 1060.886719 39.46875 1060.621094 40.199219 1060.886719 40.933594 L 1062.625 46.335938 C 1062.890625 47.203125 1062.421875 48.203125 1061.554688 48.46875 C 1061.019531 48.667969 1060.488281 48.535156 1060.019531 48.203125 L 1055.410156 44.867188 C 1054.8125 44.46875 1054.007812 44.46875 1053.410156 44.867188 L 1048.800781 48.203125 C 1048.066406 48.738281 1047 48.601562 1046.398438 47.871094 C 1046.0625 47.402344 1045.996094 46.871094 1046.128906 46.335938 L 1047.867188 40.933594 C 1048.066406 40.199219 1047.867188 39.46875 1047.265625 39 L 1042.660156 35.667969 C 1041.925781 35.132812 1041.722656 34.066406 1042.257812 33.265625 C 1042.589844 32.796875 1043.125 32.53125 1043.660156 32.53125 L 1049.335938 32.53125 C 1050.070312 32.53125 1050.738281 32.066406 1050.9375 31.332031 L 1052.675781 25.929688 C 1052.941406 25.0625 1053.941406 24.53125 1054.8125 24.863281 C 1055.480469 24.996094 1055.878906 25.394531 1056.078125 25.929688 Z M 1056.078125 25.929688 " fill-opacity="1" fill-rule="nonzero"/><path fill="#8ff3ad" d="M 1089.332031 25.929688 L 1091.066406 31.332031 C 1091.269531 32.066406 1091.9375 32.53125 1092.671875 32.53125 L 1098.347656 32.53125 C 1099.28125 32.53125 1100.082031 33.332031 1100.082031 34.265625 C 1100.082031 34.800781 1099.816406 35.332031 1099.347656 35.667969 L 1094.738281 39 C 1094.140625 39.46875 1093.871094 40.199219 1094.140625 40.933594 L 1095.875 46.335938 C 1096.140625 47.203125 1095.675781 48.203125 1094.808594 48.46875 C 1094.273438 48.667969 1093.738281 48.535156 1093.269531 48.203125 L 1088.664062 44.867188 C 1088.0625 44.46875 1087.261719 44.46875 1086.660156 44.867188 L 1082.054688 48.203125 C 1081.320312 48.738281 1080.25 48.601562 1079.648438 47.871094 C 1079.316406 47.402344 1079.25 46.871094 1079.382812 46.335938 L 1081.117188 40.933594 C 1081.320312 40.199219 1081.117188 39.46875 1080.519531 39 L 1075.910156 35.667969 C 1075.175781 35.132812 1074.976562 34.066406 1075.511719 33.265625 C 1075.84375 32.796875 1076.378906 32.53125 1076.914062 32.53125 L 1082.585938 32.53125 C 1083.324219 32.53125 1083.988281 32.066406 1084.191406 31.332031 L 1085.925781 25.929688 C 1086.195312 25.0625 1087.195312 24.53125 1088.0625 24.796875 C 1088.796875 24.929688 1089.199219 25.394531 1089.332031 25.929688 Z M 1089.332031 25.929688 " fill-opacity="1" fill-rule="nonzero"/><path fill="#8ff3ad" d="M 1122.652344 25.929688 L 1124.386719 31.332031 C 1124.585938 32.066406 1125.253906 32.53125 1125.988281 32.53125 L 1131.664062 32.53125 C 1132.597656 32.53125 1133.402344 33.332031 1133.402344 34.265625 C 1133.402344 34.800781 1133.132812 35.332031 1132.667969 35.667969 L 1128.058594 39 C 1127.457031 39.46875 1127.191406 40.199219 1127.457031 40.933594 L 1129.195312 46.335938 C 1129.460938 47.203125 1128.992188 48.203125 1128.125 48.46875 C 1127.589844 48.667969 1127.058594 48.535156 1126.589844 48.203125 L 1121.984375 44.867188 C 1121.382812 44.46875 1120.582031 44.46875 1119.980469 44.867188 L 1115.371094 48.203125 C 1114.636719 48.738281 1113.570312 48.601562 1112.96875 47.871094 C 1112.636719 47.402344 1112.566406 46.871094 1112.703125 46.335938 L 1114.4375 40.933594 C 1114.636719 40.199219 1114.4375 39.46875 1113.835938 39 L 1109.230469 35.667969 C 1108.496094 35.132812 1108.292969 34.066406 1108.828125 33.265625 C 1109.164062 32.796875 1109.695312 32.53125 1110.230469 32.53125 L 1115.90625 32.53125 C 1116.640625 32.53125 1117.308594 32.066406 1117.507812 31.332031 L 1119.246094 25.929688 C 1119.578125 25.0625 1120.515625 24.53125 1121.382812 24.863281 C 1122.117188 24.996094 1122.515625 25.394531 1122.652344 25.929688 Z M 1122.652344 25.929688 " fill-opacity="1" fill-rule="nonzero"/><g clip-path="url(#63a6e5bd20)"><path fill="#8ff3ad" d="M 940.964844 9.191406 L 995.785156 9.191406 L 995.785156 63.941406 L 940.964844 63.941406 Z M 940.964844 9.191406 " fill-opacity="1" fill-rule="nonzero"/></g><path fill="#231f20" d="M 1182.011719 16.195312 L 1183.945312 16.195312 L 1183.945312 56.9375 L 1182.011719 56.9375 Z M 1182.011719 16.195312 " fill-opacity="1" fill-rule="nonzero"/><path fill="#8ff3ad" d="M 1186.015625 16.195312 L 1187.953125 16.195312 L 1187.953125 56.9375 L 1186.015625 56.9375 Z M 1186.015625 16.195312 " fill-opacity="1" fill-rule="nonzero"/><path fill="#231f20" d="M 1190.023438 16.195312 L 1191.960938 16.195312 L 1191.960938 56.9375 L 1190.023438 56.9375 Z M 1190.023438 16.195312 " fill-opacity="1" fill-rule="nonzero"/><g clip-path="url(#a25b16b8d9)"><path fill="#8ff3ad" d="M 1194.027344 16.195312 L 1195.964844 16.195312 L 1195.964844 56.9375 L 1194.027344 56.9375 Z M 1194.027344 16.195312 " fill-opacity="1" fill-rule="nonzero"/></g><path fill="#8ff3ad" d="M 1152.699219 25.929688 L 1150.960938 31.332031 C 1150.761719 32.066406 1150.09375 32.53125 1149.359375 32.53125 L 1143.683594 32.53125 C 1142.75 32.53125 1141.949219 33.265625 1141.949219 34.265625 C 1141.949219 34.800781 1142.214844 35.332031 1142.683594 35.667969 L 1147.289062 39 C 1147.890625 39.402344 1148.15625 40.199219 1147.890625 40.933594 L 1146.152344 46.335938 C 1145.886719 47.203125 1146.355469 48.203125 1147.222656 48.46875 C 1147.757812 48.667969 1148.289062 48.535156 1148.757812 48.203125 L 1153.367188 44.867188 C 1153.632812 44.667969 1154.035156 44.535156 1154.367188 44.535156 L 1154.367188 24.730469 C 1153.566406 24.730469 1152.964844 25.195312 1152.699219 25.929688 Z M 1152.699219 25.929688 " fill-opacity="1" fill-rule="nonzero"/><path fill="#8ff3ad" d="M 1027.703125 49.070312 C 1027.167969 49.070312 1026.699219 48.9375 1026.300781 48.601562 L 1021.691406 45.269531 C 1021.359375 45.003906 1020.824219 45.003906 1020.492188 45.269531 L 1015.882812 48.601562 C 1015.082031 49.203125 1013.945312 49.203125 1013.078125 48.601562 C 1012.210938 48.003906 1011.875 46.9375 1012.210938 45.9375 L 1013.945312 40.535156 C 1014.082031 40.132812 1013.945312 39.601562 1013.546875 39.332031 L 1008.9375 36 C 1007.871094 35.199219 1007.671875 33.730469 1008.40625 32.664062 C 1008.871094 32.066406 1009.539062 31.664062 1010.339844 31.664062 L 1016.015625 31.664062 C 1016.484375 31.664062 1016.882812 31.398438 1017.019531 30.929688 L 1018.753906 25.53125 C 1019.15625 24.261719 1020.492188 23.597656 1021.757812 23.996094 C 1022.492188 24.261719 1023.027344 24.796875 1023.292969 25.53125 L 1025.03125 30.929688 C 1025.164062 31.332031 1025.566406 31.664062 1026.03125 31.664062 L 1031.707031 31.664062 C 1033.042969 31.664062 1034.113281 32.730469 1034.046875 34.066406 C 1034.046875 34.800781 1033.710938 35.53125 1033.042969 36 L 1028.4375 39.332031 C 1028.101562 39.601562 1027.902344 40.066406 1028.035156 40.535156 L 1029.773438 45.9375 C 1030.105469 46.9375 1029.773438 48.003906 1028.902344 48.601562 C 1028.703125 48.9375 1028.234375 49.070312 1027.703125 49.070312 Z M 1021.15625 43.734375 C 1021.691406 43.734375 1022.160156 43.867188 1022.558594 44.203125 L 1027.167969 47.535156 C 1027.636719 47.871094 1028.300781 47.734375 1028.636719 47.269531 C 1028.835938 47.003906 1028.902344 46.667969 1028.769531 46.335938 L 1027.035156 40.933594 C 1026.699219 39.933594 1027.035156 38.867188 1027.902344 38.265625 L 1032.507812 34.933594 C 1032.976562 34.597656 1033.042969 33.933594 1032.710938 33.464844 C 1032.507812 33.199219 1032.175781 33.066406 1031.839844 33.066406 L 1026.164062 33.066406 C 1025.164062 33.066406 1024.230469 32.398438 1023.894531 31.398438 L 1022.160156 25.996094 C 1021.960938 25.464844 1021.425781 25.128906 1020.824219 25.328125 C 1020.492188 25.464844 1020.222656 25.664062 1020.15625 25.996094 L 1018.421875 31.398438 C 1018.085938 32.398438 1017.21875 33.066406 1016.148438 33.066406 L 1010.476562 33.066406 C 1009.875 33.066406 1009.40625 33.53125 1009.40625 34.132812 C 1009.40625 34.464844 1009.539062 34.800781 1009.808594 35 L 1014.414062 38.332031 C 1015.28125 38.933594 1015.617188 40 1015.28125 41 L 1013.546875 46.402344 C 1013.347656 46.9375 1013.679688 47.535156 1014.214844 47.734375 C 1014.546875 47.871094 1014.882812 47.804688 1015.148438 47.601562 L 1019.757812 44.269531 C 1020.15625 43.933594 1020.625 43.734375 1021.15625 43.734375 Z M 1021.15625 43.734375 " fill-opacity="1" fill-rule="nonzero"/><path fill="#8ff3ad" d="M 1061.019531 49.070312 C 1060.554688 49.070312 1060.019531 48.9375 1059.617188 48.601562 L 1055.011719 45.269531 C 1054.675781 45.003906 1054.144531 45.003906 1053.808594 45.269531 L 1049.203125 48.601562 C 1048.402344 49.203125 1047.265625 49.203125 1046.398438 48.601562 C 1045.53125 48.003906 1045.195312 46.9375 1045.53125 45.9375 L 1047.265625 40.535156 C 1047.398438 40.132812 1047.265625 39.601562 1046.863281 39.332031 L 1042.257812 36 C 1041.191406 35.199219 1040.988281 33.730469 1041.722656 32.664062 C 1042.191406 32.066406 1042.859375 31.664062 1043.660156 31.664062 L 1049.335938 31.664062 C 1049.804688 31.664062 1050.203125 31.398438 1050.335938 30.929688 L 1052.074219 25.53125 C 1052.472656 24.261719 1053.808594 23.597656 1055.078125 23.996094 C 1055.8125 24.261719 1056.347656 24.796875 1056.613281 25.53125 L 1058.351562 30.929688 C 1058.484375 31.332031 1058.882812 31.664062 1059.351562 31.664062 L 1065.027344 31.664062 C 1066.363281 31.664062 1067.429688 32.730469 1067.363281 34.066406 C 1067.363281 34.800781 1067.03125 35.53125 1066.363281 36 L 1061.753906 39.332031 C 1061.421875 39.601562 1061.222656 40.066406 1061.355469 40.535156 L 1063.089844 45.9375 C 1063.425781 46.9375 1063.089844 48.003906 1062.222656 48.601562 C 1062.023438 48.9375 1061.554688 49.070312 1061.019531 49.070312 Z M 1054.476562 43.734375 C 1055.011719 43.734375 1055.480469 43.867188 1055.878906 44.203125 L 1060.488281 47.535156 C 1060.953125 47.871094 1061.621094 47.734375 1061.957031 47.269531 C 1062.15625 47.003906 1062.222656 46.667969 1062.089844 46.335938 L 1060.351562 40.933594 C 1060.019531 39.933594 1060.351562 38.867188 1061.222656 38.265625 L 1065.828125 34.933594 C 1066.230469 34.664062 1066.363281 34.199219 1066.230469 33.730469 C 1066.09375 33.332031 1065.695312 33 1065.226562 33 L 1059.550781 33 C 1058.550781 33 1057.617188 32.332031 1057.28125 31.332031 L 1055.546875 25.929688 C 1055.34375 25.394531 1054.8125 25.0625 1054.210938 25.261719 C 1053.875 25.394531 1053.609375 25.597656 1053.542969 25.929688 L 1051.804688 31.332031 C 1051.472656 32.332031 1050.605469 33 1049.535156 33 L 1043.859375 33 C 1043.257812 33 1042.792969 33.464844 1042.792969 34.066406 C 1042.792969 34.398438 1042.925781 34.734375 1043.191406 34.933594 L 1047.800781 38.265625 C 1048.667969 38.867188 1049 39.933594 1048.667969 40.933594 L 1046.933594 46.335938 C 1046.730469 46.871094 1047.066406 47.46875 1047.597656 47.667969 C 1047.933594 47.804688 1048.265625 47.734375 1048.535156 47.535156 L 1053.140625 44.203125 C 1053.410156 43.933594 1053.941406 43.734375 1054.476562 43.734375 Z M 1054.476562 43.734375 " fill-opacity="1" fill-rule="nonzero"/><path fill="#8ff3ad" d="M 1094.339844 49.070312 C 1093.804688 49.070312 1093.339844 48.9375 1092.9375 48.601562 L 1088.332031 45.269531 C 1087.996094 45.003906 1087.460938 45.003906 1087.128906 45.269531 L 1082.519531 48.601562 C 1081.453125 49.402344 1079.984375 49.136719 1079.183594 48.070312 C 1078.714844 47.46875 1078.582031 46.667969 1078.847656 45.9375 L 1080.585938 40.535156 C 1080.71875 40.132812 1080.585938 39.601562 1080.183594 39.332031 L 1075.578125 36 C 1074.507812 35.199219 1074.308594 33.730469 1075.042969 32.664062 C 1075.511719 32.066406 1076.179688 31.664062 1076.980469 31.664062 L 1082.65625 31.664062 C 1083.121094 31.664062 1083.523438 31.398438 1083.65625 30.929688 L 1085.390625 25.53125 C 1085.792969 24.261719 1087.128906 23.597656 1088.398438 23.996094 C 1089.132812 24.261719 1089.664062 24.796875 1089.933594 25.53125 L 1091.667969 30.929688 C 1091.800781 31.332031 1092.203125 31.664062 1092.671875 31.664062 L 1098.347656 31.664062 C 1099.679688 31.664062 1100.75 32.730469 1100.683594 34.066406 C 1100.683594 34.800781 1100.347656 35.53125 1099.679688 36 L 1095.074219 39.332031 C 1094.738281 39.601562 1094.539062 40.066406 1094.671875 40.535156 L 1096.410156 45.9375 C 1096.742188 46.9375 1096.410156 48.003906 1095.542969 48.601562 C 1095.339844 48.9375 1094.875 49.070312 1094.339844 49.070312 Z M 1087.730469 43.734375 C 1088.261719 43.734375 1088.730469 43.867188 1089.132812 44.203125 L 1093.738281 47.535156 C 1094.207031 47.871094 1094.875 47.734375 1095.207031 47.269531 C 1095.40625 47.003906 1095.476562 46.667969 1095.339844 46.335938 L 1093.605469 40.933594 C 1093.269531 39.933594 1093.605469 38.867188 1094.472656 38.265625 L 1099.082031 34.933594 C 1099.546875 34.597656 1099.613281 33.933594 1099.28125 33.464844 C 1099.082031 33.199219 1098.746094 33.066406 1098.414062 33.066406 L 1092.738281 33.066406 C 1091.734375 33.066406 1090.800781 32.398438 1090.46875 31.398438 L 1088.730469 25.996094 C 1088.53125 25.464844 1087.996094 25.128906 1087.394531 25.328125 C 1087.0625 25.464844 1086.792969 25.664062 1086.726562 25.996094 L 1085.058594 31.398438 C 1084.722656 32.398438 1083.855469 33.066406 1082.789062 33.066406 L 1077.113281 33.066406 C 1076.511719 33.066406 1076.042969 33.53125 1076.042969 34.132812 C 1076.042969 34.464844 1076.179688 34.800781 1076.445312 35 L 1081.050781 38.332031 C 1081.921875 38.933594 1082.253906 40 1081.921875 41 L 1080.183594 46.402344 C 1080.050781 46.800781 1080.183594 47.335938 1080.585938 47.535156 C 1080.917969 47.804688 1081.453125 47.804688 1081.785156 47.535156 L 1086.394531 44.203125 C 1086.792969 43.933594 1087.261719 43.734375 1087.730469 43.734375 Z M 1087.730469 43.734375 " fill-opacity="1" fill-rule="nonzero"/><path fill="#8ff3ad" d="M 1127.660156 49.070312 C 1127.125 49.070312 1126.65625 48.9375 1126.257812 48.601562 L 1121.648438 45.269531 C 1121.316406 45.003906 1120.78125 45.003906 1120.445312 45.269531 L 1115.839844 48.601562 C 1115.039062 49.203125 1113.902344 49.203125 1113.035156 48.601562 C 1112.167969 48.003906 1111.832031 46.9375 1112.167969 45.9375 L 1113.902344 40.535156 C 1114.039062 40.132812 1113.902344 39.601562 1113.503906 39.332031 L 1108.894531 36 C 1107.828125 35.199219 1107.628906 33.730469 1108.363281 32.664062 C 1108.828125 32.066406 1109.496094 31.664062 1110.296875 31.664062 L 1115.972656 31.664062 C 1116.441406 31.664062 1116.839844 31.398438 1116.976562 30.929688 L 1118.710938 25.53125 C 1119.046875 24.53125 1119.914062 23.863281 1120.980469 23.929688 C 1121.984375 23.929688 1122.917969 24.597656 1123.25 25.53125 L 1124.988281 30.929688 C 1125.121094 31.332031 1125.523438 31.664062 1125.988281 31.664062 L 1131.664062 31.664062 C 1133 31.664062 1134.070312 32.730469 1134.070312 34 C 1134.070312 34.800781 1133.667969 35.464844 1133.066406 35.933594 L 1128.460938 39.265625 C 1128.125 39.535156 1127.925781 40 1128.058594 40.46875 L 1129.796875 45.867188 C 1130.128906 46.871094 1129.796875 47.9375 1128.925781 48.535156 C 1128.59375 48.9375 1128.125 49.070312 1127.660156 49.070312 Z M 1121.046875 43.734375 C 1121.582031 43.734375 1122.050781 43.867188 1122.449219 44.203125 L 1127.058594 47.535156 C 1127.523438 47.871094 1128.191406 47.734375 1128.527344 47.269531 C 1128.726562 47.003906 1128.792969 46.667969 1128.660156 46.335938 L 1126.925781 40.933594 C 1126.589844 39.933594 1126.925781 38.867188 1127.792969 38.265625 L 1132.398438 34.933594 C 1132.867188 34.597656 1132.933594 33.933594 1132.597656 33.464844 C 1132.398438 33.199219 1132.066406 33.066406 1131.730469 33.066406 L 1126.054688 33.066406 C 1125.054688 33.066406 1124.121094 32.398438 1123.785156 31.398438 L 1122.050781 25.996094 C 1121.917969 25.597656 1121.515625 25.261719 1121.046875 25.261719 C 1120.582031 25.261719 1120.179688 25.53125 1120.046875 25.996094 L 1118.308594 31.398438 C 1117.976562 32.398438 1117.109375 33.066406 1116.039062 33.066406 L 1110.429688 33.066406 C 1109.832031 33.066406 1109.363281 33.53125 1109.363281 34.132812 C 1109.363281 34.464844 1109.496094 34.800781 1109.765625 35 L 1114.371094 38.332031 C 1115.238281 38.933594 1115.574219 40 1115.238281 41 L 1113.503906 46.402344 C 1113.371094 46.800781 1113.503906 47.335938 1113.902344 47.535156 C 1114.238281 47.804688 1114.773438 47.804688 1115.105469 47.535156 L 1119.710938 44.203125 C 1120.046875 43.933594 1120.582031 43.734375 1121.046875 43.734375 Z M 1121.046875 43.734375 " fill-opacity="1" fill-rule="nonzero"/><path fill="#8ff3ad" d="M 1160.910156 49.070312 C 1160.375 49.070312 1159.910156 48.9375 1159.507812 48.601562 L 1154.902344 45.269531 C 1154.566406 45.003906 1154.035156 45.003906 1153.699219 45.269531 L 1149.09375 48.601562 C 1148.289062 49.203125 1147.15625 49.203125 1146.289062 48.601562 C 1145.417969 48.003906 1145.085938 46.9375 1145.417969 45.9375 L 1147.15625 40.535156 C 1147.289062 40.132812 1147.15625 39.601562 1146.753906 39.332031 L 1142.148438 36 C 1141.078125 35.199219 1140.878906 33.730469 1141.613281 32.664062 C 1142.082031 32.066406 1142.75 31.664062 1143.550781 31.664062 L 1149.226562 31.664062 C 1149.691406 31.664062 1150.09375 31.398438 1150.226562 30.929688 L 1151.964844 25.53125 C 1152.296875 24.53125 1153.164062 23.863281 1154.234375 23.929688 C 1155.234375 23.929688 1156.167969 24.597656 1156.503906 25.53125 L 1158.238281 30.929688 C 1158.375 31.332031 1158.773438 31.664062 1159.242188 31.664062 L 1164.917969 31.664062 C 1166.253906 31.664062 1167.320312 32.730469 1167.253906 34.066406 C 1167.253906 34.800781 1166.921875 35.53125 1166.253906 36 L 1161.644531 39.332031 C 1161.3125 39.601562 1161.109375 40.066406 1161.246094 40.535156 L 1162.980469 45.9375 C 1163.316406 46.9375 1162.980469 48.003906 1162.113281 48.601562 C 1161.914062 48.9375 1161.445312 49.070312 1160.910156 49.070312 Z M 1154.367188 43.734375 C 1154.902344 43.734375 1155.367188 43.867188 1155.769531 44.203125 L 1160.375 47.535156 C 1160.84375 47.871094 1161.511719 47.734375 1161.84375 47.269531 C 1162.046875 47.003906 1162.113281 46.667969 1161.980469 46.335938 L 1160.242188 40.933594 C 1159.910156 39.933594 1160.242188 38.867188 1161.109375 38.265625 L 1165.71875 34.933594 C 1166.1875 34.597656 1166.253906 33.933594 1165.917969 33.464844 C 1165.71875 33.199219 1165.382812 33.066406 1165.050781 33.066406 L 1159.308594 33.066406 C 1158.304688 33.066406 1157.371094 32.398438 1157.039062 31.398438 L 1155.300781 25.996094 C 1155.167969 25.597656 1154.769531 25.261719 1154.300781 25.261719 C 1153.832031 25.261719 1153.433594 25.53125 1153.296875 25.996094 L 1151.5625 31.398438 C 1151.230469 32.398438 1150.359375 33.066406 1149.292969 33.066406 L 1143.617188 33.066406 C 1143.015625 33.066406 1142.546875 33.53125 1142.546875 34.132812 C 1142.546875 34.464844 1142.683594 34.800781 1142.949219 35 L 1147.554688 38.332031 C 1148.425781 38.933594 1148.757812 40 1148.425781 41 L 1146.6875 46.402344 C 1146.554688 46.800781 1146.6875 47.335938 1147.089844 47.535156 C 1147.421875 47.804688 1147.957031 47.804688 1148.289062 47.535156 L 1152.898438 44.203125 C 1153.367188 43.867188 1153.832031 43.734375 1154.367188 43.734375 Z M 1154.367188 43.734375 " fill-opacity="1" fill-rule="nonzero"/><path fill="#231f20" d="M 962.464844 38.535156 L 964.402344 38.535156 L 964.402344 41.269531 L 962.464844 41.269531 L 962.464844 44.933594 L 959.0625 44.933594 L 959.0625 41.269531 L 952.050781 41.269531 L 951.917969 39.132812 L 959.0625 27.929688 L 962.464844 27.929688 C 962.464844 27.929688 962.464844 38.535156 962.464844 38.535156 Z M 955.320312 38.535156 L 959.128906 38.535156 L 959.128906 32.53125 L 958.925781 32.933594 Z M 955.320312 38.535156 " fill-opacity="1" fill-rule="nonzero"/><path fill="#231f20" d="M 966.539062 43.269531 C 966.539062 42.734375 966.738281 42.269531 967.074219 41.933594 C 967.875 41.269531 969.007812 41.269531 969.8125 41.933594 C 970.546875 42.667969 970.546875 43.800781 969.8125 44.535156 C 969.007812 45.203125 967.875 45.203125 967.074219 44.535156 C 966.738281 44.203125 966.539062 43.800781 966.539062 43.269531 Z M 966.539062 43.269531 " fill-opacity="1" fill-rule="nonzero"/><path fill="#231f20" d="M 973.683594 36.601562 L 974.683594 27.929688 L 984.234375 27.929688 L 984.234375 30.730469 L 977.488281 30.730469 L 977.089844 34.398438 C 977.890625 34 978.757812 33.730469 979.625 33.730469 C 981.09375 33.664062 982.429688 34.199219 983.433594 35.265625 C 984.433594 36.464844 984.902344 37.933594 984.835938 39.46875 C 984.835938 40.46875 984.632812 41.535156 984.167969 42.402344 C 983.699219 43.269531 983.03125 43.933594 982.164062 44.402344 C 981.230469 44.867188 980.160156 45.136719 979.09375 45.136719 C 978.089844 45.136719 977.089844 45.003906 976.152344 44.535156 C 975.285156 44.136719 974.617188 43.535156 974.085938 42.800781 C 973.550781 42 973.28125 41.132812 973.28125 40.199219 L 976.621094 40.199219 C 976.621094 40.800781 976.890625 41.402344 977.355469 41.867188 C 977.824219 42.269531 978.425781 42.46875 979.023438 42.46875 C 979.691406 42.535156 980.359375 42.203125 980.828125 41.667969 C 981.296875 41 981.496094 40.132812 981.429688 39.332031 C 981.496094 38.535156 981.230469 37.734375 980.695312 37.132812 C 980.160156 36.601562 979.425781 36.332031 978.691406 36.332031 C 977.957031 36.332031 977.289062 36.53125 976.753906 36.933594 L 976.421875 37.265625 Z M 973.683594 36.601562 " fill-opacity="1" fill-rule="nonzero"/><g fill="#ffffff" fill-opacity="1"><g transform="translate(1012.24656, 97.854074)"><g><path d="M 17.453125 -8.296875 C 17.453125 -6.578125 17.125 -5.070312 16.46875 -3.78125 C 15.8125 -2.488281 14.867188 -1.492188 13.640625 -0.796875 C 12.410156 -0.109375 10.957031 0.234375 9.28125 0.234375 C 7.59375 0.234375 6.132812 -0.109375 4.90625 -0.796875 C 3.675781 -1.484375 2.738281 -2.472656 2.09375 -3.765625 C 1.445312 -5.054688 1.125 -6.566406 1.125 -8.296875 C 1.125 -10.929688 1.84375 -12.988281 3.28125 -14.46875 C 4.726562 -15.945312 6.734375 -16.6875 9.296875 -16.6875 C 10.972656 -16.6875 12.425781 -16.351562 13.65625 -15.6875 C 14.882812 -15.03125 15.820312 -14.066406 16.46875 -12.796875 C 17.125 -11.523438 17.453125 -10.023438 17.453125 -8.296875 Z M 15.171875 -8.296875 C 15.171875 -10.347656 14.660156 -11.957031 13.640625 -13.125 C 12.617188 -14.289062 11.171875 -14.875 9.296875 -14.875 C 7.421875 -14.875 5.96875 -14.296875 4.9375 -13.140625 C 3.90625 -11.992188 3.390625 -10.378906 3.390625 -8.296875 C 3.390625 -6.234375 3.910156 -4.597656 4.953125 -3.390625 C 5.992188 -2.179688 7.4375 -1.578125 9.28125 -1.578125 C 11.175781 -1.578125 12.628906 -2.160156 13.640625 -3.328125 C 14.660156 -4.503906 15.171875 -6.160156 15.171875 -8.296875 Z M 15.171875 -8.296875 "/></g></g></g><g fill="#ffffff" fill-opacity="1"><g transform="translate(1030.840239, 97.854074)"><g><path d="M 7.15625 0 L 4.671875 0 L 0.078125 -12.625 L 2.328125 -12.625 L 5.09375 -4.40625 C 5.195312 -4.101562 5.46875 -3.179688 5.90625 -1.640625 L 6.3125 -3.015625 L 6.765625 -4.390625 L 9.640625 -12.625 L 11.875 -12.625 Z M 7.15625 0 "/></g></g></g><g fill="#ffffff" fill-opacity="1"><g transform="translate(1042.792484, 97.854074)"><g><path d="M 3.21875 -5.875 C 3.21875 -4.425781 3.515625 -3.304688 4.109375 -2.515625 C 4.710938 -1.734375 5.59375 -1.34375 6.75 -1.34375 C 7.65625 -1.34375 8.382812 -1.523438 8.9375 -1.890625 C 9.488281 -2.253906 9.859375 -2.71875 10.046875 -3.28125 L 11.890625 -2.75 C 11.140625 -0.757812 9.425781 0.234375 6.75 0.234375 C 4.882812 0.234375 3.460938 -0.320312 2.484375 -1.4375 C 1.503906 -2.550781 1.015625 -4.203125 1.015625 -6.390625 C 1.015625 -8.484375 1.503906 -10.082031 2.484375 -11.1875 C 3.460938 -12.300781 4.859375 -12.859375 6.671875 -12.859375 C 10.378906 -12.859375 12.234375 -10.625 12.234375 -6.15625 L 12.234375 -5.875 Z M 10.0625 -7.484375 C 9.945312 -8.816406 9.609375 -9.785156 9.046875 -10.390625 C 8.484375 -11.003906 7.675781 -11.3125 6.625 -11.3125 C 5.601562 -11.3125 4.796875 -10.96875 4.203125 -10.28125 C 3.609375 -9.601562 3.289062 -8.671875 3.25 -7.484375 Z M 10.0625 -7.484375 "/></g></g></g><g fill="#ffffff" fill-opacity="1"><g transform="translate(1056.087023, 97.854074)"><g><path d="M 1.65625 0 L 1.65625 -9.6875 C 1.65625 -10.570312 1.632812 -11.550781 1.59375 -12.625 L 3.578125 -12.625 C 3.640625 -11.195312 3.671875 -10.335938 3.671875 -10.046875 L 3.71875 -10.046875 C 4.050781 -11.128906 4.429688 -11.867188 4.859375 -12.265625 C 5.296875 -12.660156 5.914062 -12.859375 6.71875 -12.859375 C 6.988281 -12.859375 7.269531 -12.820312 7.5625 -12.75 L 7.5625 -10.828125 C 7.28125 -10.898438 6.90625 -10.9375 6.4375 -10.9375 C 5.570312 -10.9375 4.910156 -10.5625 4.453125 -9.8125 C 3.992188 -9.0625 3.765625 -7.984375 3.765625 -6.578125 L 3.765625 0 Z M 1.65625 0 "/></g></g></g><g fill="#ffffff" fill-opacity="1"><g transform="translate(1064.047405, 97.854074)"><g/></g></g><g fill="#ffffff" fill-opacity="1"><g transform="translate(1070.688838, 97.854074)"><g><path d="M 10.28125 -3.71875 L 10.28125 0 L 8.296875 0 L 8.296875 -3.71875 L 0.546875 -3.71875 L 0.546875 -5.359375 L 8.078125 -16.453125 L 10.28125 -16.453125 L 10.28125 -5.375 L 12.59375 -5.375 L 12.59375 -3.71875 Z M 8.296875 -14.078125 C 8.285156 -14.023438 8.175781 -13.816406 7.96875 -13.453125 C 7.769531 -13.085938 7.617188 -12.832031 7.515625 -12.6875 L 3.296875 -6.484375 L 2.671875 -5.609375 L 2.484375 -5.375 L 8.296875 -5.375 Z M 8.296875 -14.078125 "/></g></g></g><g fill="#ffffff" fill-opacity="1"><g transform="translate(1083.983376, 97.854074)"><g><path d="M 12.359375 -8.234375 C 12.359375 -5.484375 11.875 -3.382812 10.90625 -1.9375 C 9.9375 -0.488281 8.507812 0.234375 6.625 0.234375 C 4.726562 0.234375 3.304688 -0.484375 2.359375 -1.921875 C 1.410156 -3.359375 0.9375 -5.460938 0.9375 -8.234375 C 0.9375 -11.054688 1.394531 -13.171875 2.3125 -14.578125 C 3.238281 -15.984375 4.695312 -16.6875 6.6875 -16.6875 C 8.625 -16.6875 10.050781 -15.972656 10.96875 -14.546875 C 11.894531 -13.128906 12.359375 -11.023438 12.359375 -8.234375 Z M 10.21875 -8.234375 C 10.21875 -10.609375 9.941406 -12.328125 9.390625 -13.390625 C 8.847656 -14.453125 7.945312 -14.984375 6.6875 -14.984375 C 5.394531 -14.984375 4.46875 -14.457031 3.90625 -13.40625 C 3.34375 -12.363281 3.0625 -10.640625 3.0625 -8.234375 C 3.0625 -5.898438 3.347656 -4.191406 3.921875 -3.109375 C 4.492188 -2.023438 5.398438 -1.484375 6.640625 -1.484375 C 7.878906 -1.484375 8.785156 -2.035156 9.359375 -3.140625 C 9.929688 -4.242188 10.21875 -5.941406 10.21875 -8.234375 Z M 10.21875 -8.234375 "/></g></g></g><g fill="#ffffff" fill-opacity="1"><g transform="translate(1097.277915, 97.854074)"><g><path d="M 12.359375 -8.234375 C 12.359375 -5.484375 11.875 -3.382812 10.90625 -1.9375 C 9.9375 -0.488281 8.507812 0.234375 6.625 0.234375 C 4.726562 0.234375 3.304688 -0.484375 2.359375 -1.921875 C 1.410156 -3.359375 0.9375 -5.460938 0.9375 -8.234375 C 0.9375 -11.054688 1.394531 -13.171875 2.3125 -14.578125 C 3.238281 -15.984375 4.695312 -16.6875 6.6875 -16.6875 C 8.625 -16.6875 10.050781 -15.972656 10.96875 -14.546875 C 11.894531 -13.128906 12.359375 -11.023438 12.359375 -8.234375 Z M 10.21875 -8.234375 C 10.21875 -10.609375 9.941406 -12.328125 9.390625 -13.390625 C 8.847656 -14.453125 7.945312 -14.984375 6.6875 -14.984375 C 5.394531 -14.984375 4.46875 -14.457031 3.90625 -13.40625 C 3.34375 -12.363281 3.0625 -10.640625 3.0625 -8.234375 C 3.0625 -5.898438 3.347656 -4.191406 3.921875 -3.109375 C 4.492188 -2.023438 5.398438 -1.484375 6.640625 -1.484375 C 7.878906 -1.484375 8.785156 -2.035156 9.359375 -3.140625 C 9.929688 -4.242188 10.21875 -5.941406 10.21875 -8.234375 Z M 10.21875 -8.234375 "/></g></g></g><g fill="#ffffff" fill-opacity="1"><g transform="translate(1110.572453, 97.854074)"><g><path d="M 7.828125 -7.09375 L 7.828125 -2.09375 L 6.109375 -2.09375 L 6.109375 -7.09375 L 1.171875 -7.09375 L 1.171875 -8.796875 L 6.109375 -8.796875 L 6.109375 -13.796875 L 7.828125 -13.796875 L 7.828125 -8.796875 L 12.78125 -8.796875 L 12.78125 -7.09375 Z M 7.828125 -7.09375 "/></g></g></g><g fill="#ffffff" fill-opacity="1"><g transform="translate(1029.194076, 130.859259)"><g><path d="M 1.65625 0 L 1.65625 -9.6875 C 1.65625 -10.570312 1.632812 -11.550781 1.59375 -12.625 L 3.578125 -12.625 C 3.640625 -11.195312 3.671875 -10.335938 3.671875 -10.046875 L 3.71875 -10.046875 C 4.050781 -11.128906 4.429688 -11.867188 4.859375 -12.265625 C 5.296875 -12.660156 5.914062 -12.859375 6.71875 -12.859375 C 6.988281 -12.859375 7.269531 -12.820312 7.5625 -12.75 L 7.5625 -10.828125 C 7.28125 -10.898438 6.90625 -10.9375 6.4375 -10.9375 C 5.570312 -10.9375 4.910156 -10.5625 4.453125 -9.8125 C 3.992188 -9.0625 3.765625 -7.984375 3.765625 -6.578125 L 3.765625 0 Z M 1.65625 0 "/></g></g></g><g fill="#ffffff" fill-opacity="1"><g transform="translate(1037.154458, 130.859259)"><g><path d="M 4.828125 0.234375 C 3.566406 0.234375 2.613281 -0.0976562 1.96875 -0.765625 C 1.332031 -1.441406 1.015625 -2.363281 1.015625 -3.53125 C 1.015625 -4.832031 1.441406 -5.832031 2.296875 -6.53125 C 3.160156 -7.238281 4.550781 -7.613281 6.46875 -7.65625 L 9.296875 -7.703125 L 9.296875 -8.390625 C 9.296875 -9.421875 9.078125 -10.15625 8.640625 -10.59375 C 8.210938 -11.039062 7.53125 -11.265625 6.59375 -11.265625 C 5.65625 -11.265625 4.972656 -11.101562 4.546875 -10.78125 C 4.117188 -10.46875 3.859375 -9.957031 3.765625 -9.25 L 1.578125 -9.453125 C 1.929688 -11.722656 3.617188 -12.859375 6.640625 -12.859375 C 8.222656 -12.859375 9.414062 -12.492188 10.21875 -11.765625 C 11.019531 -11.046875 11.421875 -9.992188 11.421875 -8.609375 L 11.421875 -3.171875 C 11.421875 -2.546875 11.503906 -2.078125 11.671875 -1.765625 C 11.835938 -1.453125 12.148438 -1.296875 12.609375 -1.296875 C 12.804688 -1.296875 13.035156 -1.320312 13.296875 -1.375 L 13.296875 -0.0625 C 12.765625 0.0507812 12.222656 0.109375 11.671875 0.109375 C 10.890625 0.109375 10.320312 -0.09375 9.96875 -0.5 C 9.613281 -0.90625 9.414062 -1.546875 9.375 -2.421875 L 9.296875 -2.421875 C 8.765625 -1.453125 8.140625 -0.765625 7.421875 -0.359375 C 6.710938 0.0351562 5.847656 0.234375 4.828125 0.234375 Z M 5.3125 -1.34375 C 6.082031 -1.34375 6.765625 -1.515625 7.359375 -1.859375 C 7.960938 -2.210938 8.4375 -2.691406 8.78125 -3.296875 C 9.125 -3.910156 9.296875 -4.539062 9.296875 -5.1875 L 9.296875 -6.234375 L 7 -6.1875 C 6.007812 -6.164062 5.257812 -6.0625 4.75 -5.875 C 4.238281 -5.695312 3.847656 -5.410156 3.578125 -5.015625 C 3.304688 -4.628906 3.171875 -4.117188 3.171875 -3.484375 C 3.171875 -2.804688 3.351562 -2.28125 3.71875 -1.90625 C 4.09375 -1.53125 4.625 -1.34375 5.3125 -1.34375 Z M 5.3125 -1.34375 "/></g></g></g><g fill="#ffffff" fill-opacity="1"><g transform="translate(1050.448996, 130.859259)"><g><path d="M 6.46875 -0.09375 C 5.769531 0.09375 5.0625 0.1875 4.34375 0.1875 C 2.664062 0.1875 1.828125 -0.765625 1.828125 -2.671875 L 1.828125 -11.09375 L 0.359375 -11.09375 L 0.359375 -12.625 L 1.90625 -12.625 L 2.515625 -15.453125 L 3.921875 -15.453125 L 3.921875 -12.625 L 6.25 -12.625 L 6.25 -11.09375 L 3.921875 -11.09375 L 3.921875 -3.125 C 3.921875 -2.519531 4.019531 -2.09375 4.21875 -1.84375 C 4.414062 -1.601562 4.757812 -1.484375 5.25 -1.484375 C 5.53125 -1.484375 5.9375 -1.535156 6.46875 -1.640625 Z M 6.46875 -0.09375 "/></g></g></g><g fill="#ffffff" fill-opacity="1"><g transform="translate(1057.090429, 130.859259)"><g><path d="M 6.46875 -0.09375 C 5.769531 0.09375 5.0625 0.1875 4.34375 0.1875 C 2.664062 0.1875 1.828125 -0.765625 1.828125 -2.671875 L 1.828125 -11.09375 L 0.359375 -11.09375 L 0.359375 -12.625 L 1.90625 -12.625 L 2.515625 -15.453125 L 3.921875 -15.453125 L 3.921875 -12.625 L 6.25 -12.625 L 6.25 -11.09375 L 3.921875 -11.09375 L 3.921875 -3.125 C 3.921875 -2.519531 4.019531 -2.09375 4.21875 -1.84375 C 4.414062 -1.601562 4.757812 -1.484375 5.25 -1.484375 C 5.53125 -1.484375 5.9375 -1.535156 6.46875 -1.640625 Z M 6.46875 -0.09375 "/></g></g></g><g fill="#ffffff" fill-opacity="1"><g transform="translate(1063.731863, 130.859259)"><g><path d="M 1.59375 -15.3125 L 1.59375 -17.328125 L 3.703125 -17.328125 L 3.703125 -15.3125 Z M 1.59375 0 L 1.59375 -12.625 L 3.703125 -12.625 L 3.703125 0 Z M 1.59375 0 "/></g></g></g><g fill="#ffffff" fill-opacity="1"><g transform="translate(1069.042675, 130.859259)"><g><path d="M 9.625 0 L 9.625 -8 C 9.625 -8.832031 9.539062 -9.476562 9.375 -9.9375 C 9.21875 -10.40625 8.957031 -10.738281 8.59375 -10.9375 C 8.238281 -11.132812 7.71875 -11.234375 7.03125 -11.234375 C 6.019531 -11.234375 5.222656 -10.882812 4.640625 -10.1875 C 4.054688 -9.5 3.765625 -8.539062 3.765625 -7.3125 L 3.765625 0 L 1.65625 0 L 1.65625 -9.9375 C 1.65625 -11.40625 1.632812 -12.300781 1.59375 -12.625 L 3.578125 -12.625 C 3.578125 -12.59375 3.582031 -12.488281 3.59375 -12.3125 C 3.601562 -12.144531 3.613281 -11.945312 3.625 -11.71875 C 3.632812 -11.5 3.648438 -11.082031 3.671875 -10.46875 L 3.703125 -10.46875 C 4.179688 -11.34375 4.738281 -11.957031 5.375 -12.3125 C 6.007812 -12.675781 6.796875 -12.859375 7.734375 -12.859375 C 9.117188 -12.859375 10.132812 -12.515625 10.78125 -11.828125 C 11.425781 -11.140625 11.75 -10.003906 11.75 -8.421875 L 11.75 0 Z M 9.625 0 "/></g></g></g><g fill="#ffffff" fill-opacity="1"><g transform="translate(1082.337213, 130.859259)"><g><path d="M 6.390625 4.96875 C 5.015625 4.96875 3.914062 4.695312 3.09375 4.15625 C 2.28125 3.613281 1.757812 2.84375 1.53125 1.84375 L 3.640625 1.546875 C 3.785156 2.128906 4.09375 2.578125 4.5625 2.890625 C 5.039062 3.203125 5.671875 3.359375 6.453125 3.359375 C 8.546875 3.359375 9.59375 2.132812 9.59375 -0.3125 L 9.59375 -2.34375 L 9.578125 -2.34375 C 9.171875 -1.53125 8.625 -0.921875 7.9375 -0.515625 C 7.25 -0.109375 6.441406 0.09375 5.515625 0.09375 C 3.960938 0.09375 2.820312 -0.414062 2.09375 -1.4375 C 1.363281 -2.46875 1 -4.085938 1 -6.296875 C 1 -8.523438 1.390625 -10.171875 2.171875 -11.234375 C 2.953125 -12.296875 4.144531 -12.828125 5.75 -12.828125 C 6.632812 -12.828125 7.40625 -12.625 8.0625 -12.21875 C 8.726562 -11.8125 9.238281 -11.226562 9.59375 -10.46875 L 9.625 -10.46875 C 9.625 -10.707031 9.640625 -11.113281 9.671875 -11.6875 C 9.703125 -12.257812 9.734375 -12.570312 9.765625 -12.625 L 11.75 -12.625 C 11.707031 -12.207031 11.6875 -11.335938 11.6875 -10.015625 L 11.6875 -0.359375 C 11.6875 3.191406 9.921875 4.96875 6.390625 4.96875 Z M 9.59375 -6.3125 C 9.59375 -7.34375 9.453125 -8.226562 9.171875 -8.96875 C 8.890625 -9.707031 8.492188 -10.273438 7.984375 -10.671875 C 7.472656 -11.066406 6.894531 -11.265625 6.25 -11.265625 C 5.175781 -11.265625 4.394531 -10.875 3.90625 -10.09375 C 3.414062 -9.320312 3.171875 -8.0625 3.171875 -6.3125 C 3.171875 -4.582031 3.398438 -3.335938 3.859375 -2.578125 C 4.316406 -1.828125 5.101562 -1.453125 6.21875 -1.453125 C 6.882812 -1.453125 7.472656 -1.644531 7.984375 -2.03125 C 8.492188 -2.425781 8.890625 -2.988281 9.171875 -3.71875 C 9.453125 -4.445312 9.59375 -5.3125 9.59375 -6.3125 Z M 9.59375 -6.3125 "/></g></g></g><g fill="#ffffff" fill-opacity="1"><g transform="translate(1095.631751, 130.859259)"><g><path d="M 11.09375 -3.484375 C 11.09375 -2.296875 10.640625 -1.378906 9.734375 -0.734375 C 8.835938 -0.0859375 7.582031 0.234375 5.96875 0.234375 C 4.394531 0.234375 3.179688 -0.0195312 2.328125 -0.53125 C 1.472656 -1.050781 0.921875 -1.863281 0.671875 -2.96875 L 2.515625 -3.328125 C 2.703125 -2.648438 3.070312 -2.148438 3.625 -1.828125 C 4.1875 -1.515625 4.96875 -1.359375 5.96875 -1.359375 C 7.03125 -1.359375 7.804688 -1.519531 8.296875 -1.84375 C 8.796875 -2.175781 9.046875 -2.671875 9.046875 -3.328125 C 9.046875 -3.828125 8.875 -4.226562 8.53125 -4.53125 C 8.1875 -4.84375 7.632812 -5.101562 6.875 -5.3125 L 5.375 -5.703125 C 4.164062 -6.015625 3.304688 -6.320312 2.796875 -6.625 C 2.285156 -6.925781 1.882812 -7.289062 1.59375 -7.71875 C 1.3125 -8.144531 1.171875 -8.671875 1.171875 -9.296875 C 1.171875 -10.441406 1.578125 -11.316406 2.390625 -11.921875 C 3.210938 -12.523438 4.410156 -12.828125 5.984375 -12.828125 C 7.378906 -12.828125 8.488281 -12.582031 9.3125 -12.09375 C 10.132812 -11.601562 10.65625 -10.816406 10.875 -9.734375 L 8.96875 -9.5 C 8.851562 -10.0625 8.539062 -10.488281 8.03125 -10.78125 C 7.519531 -11.082031 6.835938 -11.234375 5.984375 -11.234375 C 5.035156 -11.234375 4.332031 -11.085938 3.875 -10.796875 C 3.425781 -10.515625 3.203125 -10.082031 3.203125 -9.5 C 3.203125 -9.144531 3.296875 -8.847656 3.484375 -8.609375 C 3.671875 -8.378906 3.945312 -8.179688 4.3125 -8.015625 C 4.6875 -7.859375 5.457031 -7.632812 6.625 -7.34375 C 7.738281 -7.0625 8.539062 -6.800781 9.03125 -6.5625 C 9.519531 -6.320312 9.90625 -6.054688 10.1875 -5.765625 C 10.476562 -5.484375 10.703125 -5.15625 10.859375 -4.78125 C 11.015625 -4.40625 11.09375 -3.972656 11.09375 -3.484375 Z M 11.09375 -3.484375 "/></g></g></g></svg>